<svg xmlns="http://www.w3.org/2000/svg" viewBox="0 0 841.62 583.32"><defs><style>.cls-1{fill:#fff;}</style></defs><g id="Calque_2" data-name="Calque 2"><g id="Calque_2-2" data-name="Calque 2"><path class="cls-1" d="M581,96.68l-27.52,4.19L562.3,82.3l-44.5,6.77-9.75,26.38-1,2.67-.75-1.74-9.56-22L474.9,106c-.13-2.14-.28-4.27-.46-6.37L454,105.25c-.11-5.34-.4-10.6-.82-15.73l-.37-4.38L410.37,96.9l.18,2.95c.26,3.91.44,7.94.57,12,.09,2.88.15,5.8.16,8.72l-11.58,2.74c.65-4.91,1.35-9.84,2.11-14.73l.84-5.36-42.92,10.16-.42,2.39c-1.31,7.76-2.33,15.58-3,23.21-.37,3.87-.64,7.76-.81,11.61l-1.16.33c0-.24,0-.48,0-.72q.39-7.38.82-15l.31-5.09-73.28,20.31c6.94-5.13,11.79-13.78,11.79-22.26,0-11.48-8.83-18.32-19.73-15.29-.69.2-1.38.42-2.06.69a18.25,18.25,0,0,0-6.82-11.2c-4.66-3.54-10.7-4.51-17-2.76a28.15,28.15,0,0,0-9.83,5.06c1-3.47,2.06-7,3.12-10.44q-10.49,3-21,6.17c1.28-4.37,2.59-8.75,3.9-13.12l1.94-6.39-6.41,1.8C193.53,90.25,168,98.59,142,108.23l-2.07.78-.27,2.19c-3.63,29.12-6.41,58.21-8.27,86.55-9.6-16.11-19.65-31.82-30.2-47.26l-7.5,4.89v0c-3.5-5.33-6.77-10.22-10-14.94l-2-2.94-3,1.93c-25.35,16.39-49.78,33.38-74.73,52L0,194.34l4,2.92C52.39,232.89,89.27,271.53,120,318.82l1.86,2.87,3-1.66,5.47-3.07c1.83-1,3.67-2,5.48-3l.32-.18q3.78,5.44,7.47,11.11,29-16.17,58-32.29c3.61-51.5,13.3-101.44,26.93-152.55a17.55,17.55,0,0,0,4.73,5.45,17.81,17.81,0,0,0,11,3.62,23.07,23.07,0,0,0,6.05-.86,26.2,26.2,0,0,0,5.48-2.21,14.8,14.8,0,0,0,2.55,4.31L225.6,161.2V276.56l28.59-9.51v14.18l21.62-7.17v.37l29-8.74-.29,13.54,65-19.62q.38-8.76.87-17.5t.95-17.63l-13.28,3.69-8.87,2.46c.22-4,.45-8.06.65-12.11l12.89-4,.54-8.26a32.53,32.53,0,0,0,8.34,10.58,27.74,27.74,0,0,0,12.7,5.73,29.16,29.16,0,0,0,5.13.44,39.73,39.73,0,0,0,7.72-.82,21.34,21.34,0,0,0,1.72,1.57,24,24,0,0,0,11,5q6.45,1.17,15.2-1.24A43.15,43.15,0,0,0,438.69,221a57.51,57.51,0,0,0,11-10.37,77.28,77.28,0,0,0,8.76-13.3,122.32,122.32,0,0,0,6.66-15.24,140,140,0,0,0,4.8-16.22q1.92-8.26,3.12-16.15.27-1.78.51-3.54l8,13.1L452.34,216l32.35,3.34L483,222.64,515.55,226,522,211.05l15.53-9.4,7.57,16,31.52-19.07-25-39.91Zm-368,4c-20.11,68.76-31.39,126.53-35.4,181.58l-45.31,25.24-5.48,3.06L124.28,312c-30-45.49-65.78-83.05-112-117.68,22.47-16.64,44.58-32,67.41-46.84,2.57,3.77,5.18,7.7,7.94,11.89,15.14,23.14,29.45,47.32,42.48,71.81L136.36,243l.59-13.34c.38-9,.86-17.76,1.39-26.1,1.8-29.16,4.58-59.17,8.28-89.23,23-8.46,45.66-15.93,69-22.7C214.76,94.65,213.86,97.68,213,100.71Zm51.22,69.52-6.61,88-3.41,1.13-21.3,7.08v-100l32.41-10.79Zm-9.66-32.08a19.51,19.51,0,0,1-6.22,3c-4.09,1.13-7.88.59-10.65-1.53s-4.44-5.82-4.44-10.26c0-9.74,7.79-20.14,17-22.7a14.69,14.69,0,0,1,4.06-.58,10.67,10.67,0,0,1,6.58,2.1c2.69,2,4.24,5.35,4.44,9.4,0,.29,0,.56,0,.85C265.38,125.91,260.81,133.74,254.55,138.15Zm23.54,27.47-6.36,2.11,1-12.95a15.56,15.56,0,0,0,1.55-.35,22.09,22.09,0,0,0,4.13-1.61Zm64.31,55.21q-.27,5.7-.6,11.33c0,.17,0,.35,0,.52-.26,4.81-.49,9.61-.71,14.45L305,258l-18.41,5.57-3.21,1,2.12-101.37v0l.13-6,62-17.19q-.3,5-.55,9.93c0,1-.11,2.08-.18,3.14-.16,3.1-.36,6.24-.6,9.38l-32,10.62L313,190.8l22.51-6.24L334.32,202l-22.63,7.06-1.24,19.42,32-8.87C342.45,220,342.44,220.43,342.4,220.83Zm-.35-25.23-.13,0,.75-10.2.06,0,13.52-4.48A95.24,95.24,0,0,0,358,191.18Zm104.18-70.95c-.35,4.67-.91,9.65-1.7,14.8s-1.82,10.47-3.08,15.87a130.18,130.18,0,0,1-4,13.87c-.2.64-.42,1.3-.65,1.94a118.84,118.84,0,0,1-6.48,14.78,74.41,74.41,0,0,1-6.39,10.2c-.62.86-1.28,1.68-1.93,2.48a54.78,54.78,0,0,1-10.35,9.71,39.88,39.88,0,0,1-12.43,5.89,41.46,41.46,0,0,1-7.08,1.35,22.47,22.47,0,0,1-6.47-.2,20.33,20.33,0,0,1-9.4-4.18,25.32,25.32,0,0,1-6.59-8.46,56.83,56.83,0,0,1-4.32-12.16,94,94,0,0,1-2-12c-.09-.73-.17-1.46-.22-2.19-.42-5-.64-9.85-.64-14.56q0-6.57.4-13.28c.15-3,.37-5.92.64-8.87.62-6.68,1.5-13.49,2.59-20.29l27.66-6.55c-.6,4.08-1.16,8.19-1.67,12.29-.37,2.85-.7,5.7-1,8.53a230.77,230.77,0,0,0-1.49,26.11c0,.93,0,2.3.11,4.12s.22,3.85.44,6,.51,4.51.89,6.79a36,36,0,0,0,1.73,6.57,15.26,15.26,0,0,0,3.16,5.27,6.67,6.67,0,0,0,6.88,1.88,10.52,10.52,0,0,0,6-4.78,32.39,32.39,0,0,0,3.47-7.53,83.06,83.06,0,0,0,2.43-9.51c.65-3.41,1.22-7,1.69-10.62s.82-7.24,1.12-10.8.49-6.83.67-9.87.29-5.79.35-8.09.07-4.05.07-5.18c0-1.72,0-3.45,0-5.16,0-2.43-.07-4.86-.14-7.25-.11-3.12-.24-6.22-.4-9.27l28.17-7.81c.28,4.18.44,8.43.51,12.72,0,1.51,0,3,0,4.56C446.74,115.62,446.58,119.92,446.23,124.65Zm100.4,63L534.38,195,527,199.48l-5.27,3.2L508.12,174l-1.67-3.55-18,41.54-.2.4-24.56-2.54L490,159l-15.13-24.74-9.25-15.11,9.63-5.11,18-9.53,6.66,15.31,7.77,17.91,10.09-27.39,5.42-14.69,26.68-4.07-19.6,41.31-7.72,16.29Z"/><polygon class="cls-1" points="170.6 503.8 146.09 510.61 158.19 447.34 170.6 503.8"/><path class="cls-1" d="M278.39,151.53l0,1.29a24.26,24.26,0,0,0,3.79-2.33Zm64.28,33.9-.75,10.2.13,0,.68-10.19Z"/><path class="cls-1" d="M679.71,119.49l-3.21.91c-3.22.91-6.08,1.59-8.85,2.24-2.36.55-4.79,1.12-7.45,1.85L654.73,126l.93-5.6c1.46-8.87,3-15.62,4.39-22.17,1.52-6.92,3-13.45,4.42-22.43l3.39-20.87,3.8,20.82c1,5.46,1.82,10,2.59,14.23,1.52,8.38,2.81,15.57,4.84,26.28Z"/><path class="cls-1" d="M840,105.27a17,17,0,0,0-4.8-7.17,16.54,16.54,0,0,0-7.65-3.6,22.67,22.67,0,0,0-7.66-.12,20.36,20.36,0,0,0-5.62-8.16c-.09-.07-.18-.16-.29-.24a47.75,47.75,0,0,1,9.32-1.46,72.73,72.73,0,0,1,10,.08L836,53.72a34.35,34.35,0,0,0-6.55-.77,58.59,58.59,0,0,0-7.08.26,65.2,65.2,0,0,0-6.84,1l1.07-12.44-3.12-.69a35.19,35.19,0,0,0-7.26-.88,63.51,63.51,0,0,0-7.5.27,71.6,71.6,0,0,0-7.7,1.15c-2.52.53-5,1.12-7.35,1.77a59.62,59.62,0,0,0-16,7.21A62.48,62.48,0,0,0,754,62.3a56.7,56.7,0,0,0-9.56,15.25,45.9,45.9,0,0,0-3.63,18,31.88,31.88,0,0,0,2.26,12.48A20.42,20.42,0,0,0,760,121a31.68,31.68,0,0,0,12.07-1,15,15,0,0,0,2.82,2.92l-.71.2a51.52,51.52,0,0,1-13.39,1.88,33.48,33.48,0,0,1-12-1.87l-4.29-1.51c-11.47-34.74-18.81-71.66-26.2-109q-7.23,1.81-14.45,3.92-1.26-6.34-2.5-12.64L700.62,0l-3.74.93A432.74,432.74,0,0,0,637.26,20.8l-1.82.77-.37,1.93c-9.89,52.87-22,109.6-43.23,166.35L590,194.79h5.28c7.51,0,14.92-.19,22.31-.48-.58,1.61-1.18,3.23-1.79,4.84,17.9-.06,35.31-.86,53.52-2.52,2.54-11.61,3.71-17.43,5.92-29l2.5-.64c1,3.81,2.13,7.61,3.63,12.63l1.24,4.17,6.2-3.12c4.29-2.15,8.63-4.32,13-6.53,1,3.76,2.11,7.5,3.59,12.45,15.73-7.91,32.15-16.08,47.77-25,2,.24,4.05.44,6.15.57,1.79.11,3.56.16,5.33.16,1.15,0,2.3,0,3.43-.07h.06l-.35,3.26c2,.44,4.34.84,6.93,1.25s5.33.67,8.14.85a73,73,0,0,0,8.36.09,33.6,33.6,0,0,0,7.57-1.13,74.51,74.51,0,0,0,16.74-6.89,55.25,55.25,0,0,0,13.59-10.83,48.57,48.57,0,0,0,9.16-14.7,49.13,49.13,0,0,0,3.36-18.49A30.17,30.17,0,0,0,840,105.27ZM699.87,166.89l-12.74,6.43c-.89-3-1.62-5.62-2.35-8.23-1-3.85-2-7.69-3.38-12.85l-.94-3.69-3.65,1.1c-9.26,2.79-13.78,4-23,6.39l-2.24.56-.44,2.28c-2,10.64-3.17,16.41-5.33,26.33-8.57.75-17,1.3-25.54,1.66-6.55.31-13.11.5-19.73.57,20.05-54.91,31.75-109.56,41.35-160.63A427.71,427.71,0,0,1,694.94,9c.62,3.17,1.26,6.37,1.9,9.56,8.82,44.31,18.65,89.41,36.75,130.33C722.63,155.16,711.22,161.13,699.87,166.89Zm111.69-43.21a42.32,42.32,0,0,1-2.28,4.86c-.42.8-.87,1.57-1.33,2.33a45.79,45.79,0,0,1-4.85,6.44,51.07,51.07,0,0,1-12.7,10.09A69.85,69.85,0,0,1,774.49,154a29.43,29.43,0,0,1-5.62.93c-.37,0-.75.06-1.14.08a78.32,78.32,0,0,1-8-.09l-2.61-.2c-1.79-.17-3.54-.39-5.22-.64-1.24-.19-2.41-.37-3.5-.57l1.66-16.11.64-6.19a44,44,0,0,0,10.12,1,58.22,58.22,0,0,0,15.29-2.13c.93-.27,2.08-.62,3.43-1.08a22.76,22.76,0,0,0,4.35-2c.23-.15.47-.3.71-.48a14.05,14.05,0,0,0,3.14-2.81,8.88,8.88,0,0,0,2-5.84,6.32,6.32,0,0,0-2-4.87,8.05,8.05,0,0,0-4-1.92,15.42,15.42,0,0,0-4-.18c-1.22.11-2.46.27-3.68.49s-2.3.48-3.34.77l-2.25.62c-.58.16-1.15.31-1.69.42a23,23,0,0,1-7.9.53,13.9,13.9,0,0,1-6.79-2.61,13.76,13.76,0,0,1-4.36-5.88,24.78,24.78,0,0,1-1.68-9.63,38.67,38.67,0,0,1,3-15.2,50.6,50.6,0,0,1,8.34-13.3,55.94,55.94,0,0,1,12.07-10.35,52.5,52.5,0,0,1,14-6.31c2.21-.62,4.52-1.17,6.88-1.66a61.18,61.18,0,0,1,6.9-1A57.82,57.82,0,0,1,806,47.5a26.61,26.61,0,0,1,2.7.18L808,56l-1.35,15.66c-2.25-.06-4.57,0-6.92.13a53.71,53.71,0,0,0-11,1.8l-2.43.71c-1,.33-2.17.72-3.32,1.17s-2.34,1-3.52,1.59A23.33,23.33,0,0,0,776,79.23a1.1,1.1,0,0,0-.16.15,11.91,11.91,0,0,0-2.76,3.06,8,8,0,0,0-1.26,4.13,5.62,5.62,0,0,0,0,.58,5.91,5.91,0,0,0,3.09,5.26,8.86,8.86,0,0,0,4.68.94,20.63,20.63,0,0,0,4.64-.76c1.44-.4,2.86-.84,4.29-1.32s2.66-.87,3.83-1.27a22.41,22.41,0,0,1,2.46-.73A22,22,0,0,1,803.5,89c.42.09.82.18,1.2.29a12.49,12.49,0,0,1,4.78,2.5,12.76,12.76,0,0,1,3.25,4.47,9.09,9.09,0,0,1,.5,1.18,26.87,26.87,0,0,1,1.42,9.16A45.13,45.13,0,0,1,811.56,123.68Z"/><path class="cls-1" d="M516.79,363.31c-.13-.46-.25-.89-.4-1.31a17.25,17.25,0,0,0-4.51-7.14,15,15,0,0,0-7.62-3.65,22.2,22.2,0,0,0-9.75.75,41,41,0,0,0-4.45,1.53,40.47,40.47,0,0,0-4.23,2.08l-1.77,1-1.94,48,7.32-2a47.77,47.77,0,0,0,9.8-4,41.42,41.42,0,0,0,7.86-5.46l1.23-1.13a34.45,34.45,0,0,0,6.71-9.07,25.36,25.36,0,0,0,2.72-11.68A30.52,30.52,0,0,0,516.79,363.31Zm-8.25,16.28c-.31.6-.63,1.18-1,1.75l.58-14.58c.57-.33,1.15-.64,1.73-.93a23,23,0,0,1,.57,5.4A17.92,17.92,0,0,1,508.54,379.59Z"/><path class="cls-1" d="M752,358.53A25.11,25.11,0,0,0,745,348a24.42,24.42,0,0,0-11.25-5.27,21.77,21.77,0,0,0-2.33-.35,25.68,25.68,0,0,0-4.58-5.14,27.73,27.73,0,0,0-12.88-6.1,34.56,34.56,0,0,0-8.38-.58c1.17-.46,2.32-.84,3.39-1.17,1.43-.42,2.58-.77,3.47-1a74,74,0,0,1,15.06-2.49,110.92,110.92,0,0,1,14.74.11l3.94-45.32a47,47,0,0,0-9.61-1.15,74.32,74.32,0,0,0-7.87.18l.86-9.91-3.1-.71a53.34,53.34,0,0,0-10.35-1.22,94.49,94.49,0,0,0-10.82.38,104,104,0,0,0-11.11,1.68c-3.67.75-7.27,1.62-10.7,2.57a85.48,85.48,0,0,0-23,10.37,90.59,90.59,0,0,0-17.88,14.85l.71-9.45-17.92,6,.6-7.89c9.68-6.9,16.48-18.83,16.48-30.53,0-13.17-8.59-21.84-20.2-21.66a22.78,22.78,0,0,0-6.07-7.08c-6-4.52-13.73-5.76-21.92-3.5-16.19,4.49-29.36,22-29.36,39,0,8.74,3.34,16.1,9.4,20.71a23,23,0,0,0,13.85,4.62l-24.09,8v32.24a20.29,20.29,0,0,0-1.81-1.05,39.92,39.92,0,0,0-8.77-3.4,36.77,36.77,0,0,0-10-7.84,48.17,48.17,0,0,0-21.09-5.31,79.25,79.25,0,0,0-23.93,3c-5.11,1.43-10.2,3-15.12,4.58s-9.88,3.49-14.68,5.52-9.67,4.37-14.43,6.95-9.56,5.49-14.36,8.68l.66-9.59a50.42,50.42,0,0,0-19.91-2.12l.62-9-2.68-.9a38.32,38.32,0,0,0-9.6-1.8,65.65,65.65,0,0,0-10.37.16,101.37,101.37,0,0,0-10.47,1.55c-3.47.71-6.77,1.48-9.76,2.32a94.12,94.12,0,0,0-23.27,10,111,111,0,0,0-19.91,15.33A121.61,121.61,0,0,0,319,364.72a132.77,132.77,0,0,0-12.06,22.39c-.26.6-.51,1.2-.75,1.82l-7.35,2.45,1.2-16c5.59-6.7,9.11-15.22,9.11-23.65,0-13.17-8.6-21.84-20.2-21.66a22.51,22.51,0,0,0-6.08-7.06c-5.95-4.54-13.74-5.78-21.91-3.52-16.21,4.51-29.38,22-29.38,39,0,8.76,3.34,16.11,9.39,20.71A22.88,22.88,0,0,0,255,383.86a28,28,0,0,0,7-.91,17.27,17.27,0,0,0,1.66,1.42l-26.2,8.72V507.58l-29.75-99.84-13,4.31-5.05-17-63,20.82-43.14,164,27.68-4.82L109,583.32l52.77-9.18L167,548.07l3-.84,3.83,14.16,19.91-8.23,3.06,11.28,40.72-16.83v.93l24.17-8v11L305.32,537l4.42-58.83a48.69,48.69,0,0,0,31.18,18.23,52.63,52.63,0,0,0,9.05.77,49.53,49.53,0,0,0,12.1,3.65q12.62,2.16,27.63-2a110.41,110.41,0,0,0,16.35-6.11,127.25,127.25,0,0,0,16.77-9.4,110.51,110.51,0,0,0,12.26-9.42q-.16,9-.37,18.1l-.09,4.89,24.47-6.78c0,3.32-.12,6.66-.2,10l44.51-12.34,1.18-29.09,6.92,18.25,18.07-8.74L534,479.9l46.57-22.5-6-9.51,13.63-4.53v11l33.37-11.08-.09.84,3.2.68c3,.64,6.49,1.26,10.4,1.84q5.31.8,11,1.2l-.15,1.41c3,.62,6.37,1.22,10.2,1.81s7.81,1,11.95,1.25a109.47,109.47,0,0,0,12.27.13,49.15,49.15,0,0,0,11.11-1.66,97.53,97.53,0,0,0,24.58-10.53,83,83,0,0,0,20-16.64,75.33,75.33,0,0,0,13.45-22.32,74.46,74.46,0,0,0,4.93-27.46A44,44,0,0,0,752,358.53ZM191.76,546.06l-13.1,5.42L177,545.29,172.59,529l-29.31,8.14L138.17,563l-24.94,4.34-19.78,3.45L132.7,421.58l52.08-17.21,3,10,35.38,118.76Zm69.15-170.34a23.17,23.17,0,0,1-3.34.66,16.3,16.3,0,0,1-12.21-2.94c-4.22-3.19-6.53-8.49-6.53-14.91,0-14,10.78-28.32,24-32a21.69,21.69,0,0,1,5.84-.84,15.78,15.78,0,0,1,9.7,3.12,15.33,15.33,0,0,1,2.67,2.61,19.53,19.53,0,0,1,3.85,12.3C284.92,357.69,274.13,372.05,260.91,375.72Zm31.22,6.9-.84,11.26-10,132.4-19.69,6.55-15.16,5-1.72.56V398.35l30.48-10.13h.14l16.74-5.62Zm123,77.82a109.39,109.39,0,0,1-14.82,11.81A119.17,119.17,0,0,1,384,481.37a108.19,108.19,0,0,1-15.8,5.92c-9.43,2.6-18.19,3.24-26,1.91a47.26,47.26,0,0,1-5.49-1.28,41.5,41.5,0,0,1-14.6-7.55,44.36,44.36,0,0,1-11.42-14.25,41.79,41.79,0,0,1-1.86-3.87c-3.25-7.55-4.89-16.37-4.89-26.22a111.72,111.72,0,0,1,2.51-23.23,129.1,129.1,0,0,1,7.19-22.87c.59-1.36,1.19-2.73,1.83-4.1a127.15,127.15,0,0,1,9.6-17.06,113.55,113.55,0,0,1,15.23-18.32,101.75,101.75,0,0,1,18.58-14.31,87.49,87.49,0,0,1,21.46-9.2c2.83-.78,5.95-1.51,9.27-2.19a96.87,96.87,0,0,1,9.69-1.44c1.9-.16,3.76-.25,5.6-.25,1.22,0,2.43,0,3.61.12a33.41,33.41,0,0,1,5.09.7l-.31,4.61-2.13,31.19a49.13,49.13,0,0,0-9.09.51,102.6,102.6,0,0,0-12.52,2.61A59.33,59.33,0,0,0,373,370.23a58.46,58.46,0,0,0-13.36,11.89,56.08,56.08,0,0,0-9,15.55,50.8,50.8,0,0,0-3.36,18.41,41.2,41.2,0,0,0,1.6,11.59,24.73,24.73,0,0,0,5.19,9.56,19.14,19.14,0,0,0,9,5.6,22.11,22.11,0,0,0,12.19-.29c.47-.13,1-.27,1.44-.44a44.57,44.57,0,0,0,7.44-3.21,29.55,29.55,0,0,0,5.94-4.19,27.76,27.76,0,0,0,2.28-2.32l.84-1,.71-14.83-7.54,2-14.91,3.87-2.44.63,1-25.56c4-1.24,7.94-2.46,11.94-3.69,5.47-1.69,11-3.37,16.4-5,8.76-2.64,17.63-5.38,26.43-8.17l.18,10.53,1,56.37A72.73,72.73,0,0,1,415.1,460.44Zm-43.21-30.58,14.25-3.7-.09,2.35a23,23,0,0,1-5.29,4,37.27,37.27,0,0,1-7.38,3,.35.35,0,0,1-.14,0c-.11-.29-.2-.58-.29-.89A34.31,34.31,0,0,1,371.89,429.86Zm55.38-57.68c-10.29,3.28-20.71,6.51-31,9.62-.88.27-1.76.52-2.63.8.62-.44,1.26-.88,1.91-1.3a55.53,55.53,0,0,1,15.48-7,95.94,95.94,0,0,1,12-2.52,48,48,0,0,1,6.9-.51Zm9.6,15.29-4.62,1.44L432,371.36c.89,0,3.78.53,5.16.73Zm118,60.4L527,461.32l-11.47,5.55-9.57-25.2-6.18-16.3-18.56,5.79-1.86,45.76-20.07,5.57-17.14,4.74q.22-10.35.42-20.67c.17-8.09.31-16.13.46-24.18.31-16.57.67-33.3,1.09-49.78l.13-7.45.27-17.51c.13-7.56.39-15.33.75-23.12,4.18-2.74,8.36-5.24,12.45-7.45,4.56-2.46,9.21-4.71,13.81-6.66s9.36-3.72,14.11-5.29,9.8-3.1,14.8-4.49a72.12,72.12,0,0,1,21.71-2.76,40.86,40.86,0,0,1,17.68,4.35,1.33,1.33,0,0,1,.24.11,30.76,30.76,0,0,1,12.17,11.95c3.07,5.29,4.62,12.22,4.62,20.62A80.39,80.39,0,0,1,555.5,370a58.81,58.81,0,0,1-4.13,13.1A63.35,63.35,0,0,1,544,395.23a102.66,102.66,0,0,1-11.1,12.11l-2.19,2.06ZM564.09,431,556,418c3-2.83,5.71-5.64,8.12-8.43Zm14.65-153.5c-4.19-3.21-6.51-8.5-6.51-14.91,0-14,10.76-28.32,24-32a21.85,21.85,0,0,1,5.84-.84,15.77,15.77,0,0,1,9.71,3.12,14.72,14.72,0,0,1,2.66,2.63,19.39,19.39,0,0,1,3.85,12.28c0,14-10.76,28.31-24,32a22.52,22.52,0,0,1-3.3.68A16.44,16.44,0,0,1,578.74,277.51Zm39.62,13-.46,6.26L608,429.13l-19.69,6.55-16.88,5.6V301.2l30.47-10.15h0l16.86-5.6ZM725.64,391.94a71.86,71.86,0,0,1-12.81,21.24,79.37,79.37,0,0,1-19.09,15.93,95.12,95.12,0,0,1-23.69,10.13,45.75,45.75,0,0,1-10.31,1.55,112.2,112.2,0,0,1-11.86-.15c-.33,0-.67,0-1-.07-3.67-.25-7.24-.66-10.64-1.15-1.48-.22-2.88-.44-4.21-.67-.9-.15-1.76-.31-2.58-.46l3.8-38.45c.55.15,1.09.28,1.66.4a62.92,62.92,0,0,0,14.67,1.5,84.48,84.48,0,0,0,22-3.08c1.37-.37,3-.88,5-1.54a31.16,31.16,0,0,0,6-2.79,20.48,20.48,0,0,0,5.22-4.43,11,11,0,0,0,1.71-2.85,11.68,11.68,0,0,0,.9-4.67,7.62,7.62,0,0,0-2.45-5.89,10,10,0,0,0-5-2.39,19.67,19.67,0,0,0-5.44-.24c-1.75.14-3.52.38-5.24.69s-3.32.69-4.76,1.1l-3.3.91A36,36,0,0,1,652,378a18.12,18.12,0,0,1-2.36-.29,21.84,21.84,0,0,1-10.78-4.82,15.79,15.79,0,0,1-1.77-1.69,26,26,0,0,1-5.31-8.45,40.8,40.8,0,0,1-2.65-15.22,58.37,58.37,0,0,1,4.64-23,72.66,72.66,0,0,1,7.88-14.07,68.14,68.14,0,0,1,4.65-5.93A83,83,0,0,1,664.4,289a78.8,78.8,0,0,1,21.06-9.49c3.26-.9,6.71-1.74,10.21-2.45A90.54,90.54,0,0,1,706,275.52a82.59,82.59,0,0,1,10-.36,45.07,45.07,0,0,1,5.78.47l-.42,4.85-2.92,33.65c-3.74-.16-7.65-.12-11.62.09A76.79,76.79,0,0,0,691,316.85c-.93.26-2.1.6-3.56,1s-3.09,1-4.73,1.64-3.32,1.43-5,2.27a30.73,30.73,0,0,0-4.83,3,15.89,15.89,0,0,0-3.87,4.25,10.14,10.14,0,0,0-1.57,5.95,7.41,7.41,0,0,0,3.38,6.31,11.86,11.86,0,0,0,5.94,1.72,29.32,29.32,0,0,0,6.37-.46c2.14-.37,4.27-.82,6.35-1.35l2.43-.66c1.15-.31,2.24-.62,3.28-.93a29,29,0,0,1,3.75-.89l.21-.06a33.93,33.93,0,0,1,13.43-.42,20.78,20.78,0,0,1,9.42,4.35c.06,0,.11.09.16.12a21.71,21.71,0,0,1,6,9,40.59,40.59,0,0,1,2.21,14A71.22,71.22,0,0,1,725.64,391.94Zm-90.18.91,1-12.71a30.17,30.17,0,0,0,12,4.76,35.94,35.94,0,0,0,10.44.14,26,26,0,0,0,10.69,4.27,30.46,30.46,0,0,0,6,.41c-.42.18-.86.34-1.3.49-1.8.6-3.35,1.07-4.56,1.42a77.11,77.11,0,0,1-20.12,2.81A53.85,53.85,0,0,1,635.46,392.85Z"/></g></g></svg>