<svg xmlns="http://www.w3.org/2000/svg" xmlns:xlink="http://www.w3.org/1999/xlink" viewBox="0 0 478.84 871.01"><defs><style>.cls-1{fill:none;}.cls-2{fill:#edb400;}.cls-3{fill:#fff;}.cls-4{fill:#ff4e00;}.cls-5{fill:#993e00;}.cls-6{clip-path:url(#clip-path);}.cls-7{fill:#d7f7f6;}.cls-8{fill:#ce3a00;}.cls-9{fill:#00ab2d;}.cls-10{fill:#afefed;}</style><clipPath id="clip-path"><path class="cls-1" d="M87,195.73c-7.51-.69-13.27,1.16-16,5.16a22.56,22.56,0,0,0-6.38-2,12.54,12.54,0,0,0-6.22.52,49.65,49.65,0,0,0-24.62-11.2c-8.47-1.18-15,.68-17.85,5.07l-3.29,5a8.05,8.05,0,0,0-.68,1.25c-.89,2-1.49,5.2.62,9.47a26.53,26.53,0,0,0,7.28,8.47c.73.6,1.44,1.14,2.11,1.63l36.6-7.23a4.34,4.34,0,0,1,1.25-.54,8,8,0,0,1,2.3-.1L78,228.62l31.17,8.28L124.59,213Z"/></clipPath></defs><g id="Calque_2" data-name="Calque 2"><g id="Calque_2-2" data-name="Calque 2"><path d="M238.86,274.63c-.22-.12-.44-.23-.65-.36l-.58-.34,0,0c.12.08.24.14.36.21A8.72,8.72,0,0,0,238.86,274.63Zm.4.22h0Zm239.58,95.08-16.09,9.71c-.82.5-20.55,12.54-39.26,36a171.16,171.16,0,0,0-27.57,49.29.06.06,0,0,0,0,.05c-2.54,10.08-4.71,19.84-5.39,26.17l0,.26c-2,13.11-2.52,27.82-3.06,43.42-1.24,36.35-2.65,77.52-22.45,122.26-2.44,5.5-10.59,17.67-23.73,31.1q.22,3.6.42,7.18l.48,10.33,3.9,4.19c.15.14.27.29.41.44,3.34,3.61,6.65,7.22,9.94,10.9l1.53,1.72-1,2.06a36,36,0,0,1-13,14c-.71,15.54-.12,32.85,5,39.79,6.68,9.05,23.27,15.34,38.18,19.37a246.67,246.67,0,0,0,28.15,5.77c-1.11,0-16.26,38.5-16.26,38.5s-27.43,3.76-42.3,6.14c-11.2,1.8-49.21,20.47-49.21,20.47-4.58-2.78-9.61-17.26-18.82-27.23-12.7-13.75-29.32-23.66-27.4-25.26,5.63-4.59,53.25-18.55,60.69-35.77,3.59-8.33-.16-25.72-4.37-39.95h0a52.12,52.12,0,0,1-11.64-6.52c1.5-4.73,3-9.46,4.66-14.15q.24-.78.51-1.56l1.79-5.16c-.15-.28-.32-.58-.48-.86-.51.37-1,.73-1.57,1.08-19.65,13.24-47.83,26.45-82,26.45a135.65,135.65,0,0,1-29.45-3.25l-16.51,13.95-11.71,38.06c.71,9.81,1.38,18.87,1.9,27,.47,7.32,15.51,25.25,14.75,35.94-.55,7.78-9,19.26-23.74,19.26h-.38c-14.94-.19-29.73-14.2-29-19.06a184.37,184.37,0,0,1,6.75-30.84c.75-2.33.69-9.79,0-20.63a157.43,157.43,0,0,0-35.21-3.82,153,153,0,0,0-22.84,1.55C87.23,791.29,65,763.48,65,763.48l56.23-2.1s7.47-2.45,16.45-5.69c-1.74-17.87-3.87-37.52-6-56.51a103.24,103.24,0,0,1-22.58-44.68,134.09,134.09,0,0,1-2.57-44.44,25.77,25.77,0,0,1-9.81-15.71c-7.58-.48-14-3.23-19.66-14.73-3.91-8-5.79-25.66-5.18-33.71l.13-1.57c.1-1.25.19-2.52.31-3.81-10.83-5-16.14-9.72-20.21-14.9-6.23-7.87-8.52-28-4.38-38.44,2.73-6.93,12.36-18.8,19.39-27.44.88-1.08,1.68-2.07,2.41-3C75,449.9,81.42,441.21,88.19,432c16.67-22.64,35.57-48.3,54.23-65l28.79-25.74a17.83,17.83,0,0,1-2.08-18.61c4.35-9.31,10-13.13,10.23-13.28l.39-.27c.3-5.6.55-12.7.66-21.36.16-14.95-5.1-25.27-9.65-31.37-14.84-8.46-24.5-23.14-28-29.11h0l-.27-.47c-.49.15-1,.32-1.47.51-.25.09-.47.19-.71.29a5.58,5.58,0,0,0-.72.31,10.91,10.91,0,0,0-1.34.63c-.41.2-.83.43-1.23.66,0,0,0,0-.07,0l-.42.25-.06,0-.86.53-.63.42c-.21.16-.44.3-.63.43l-.13.09-.08.06-.05,0a.93.93,0,0,1-.15.13c-.17.12-.34.24-.51.38a1.83,1.83,0,0,0-.39.31h0L133,232h0a.64.64,0,0,1-.13.1l-.07.07a.63.63,0,0,0-.12.1c-.26.21-.51.41-.74.62-.73.62-1.43,1.28-2.11,2l-.54.58c-.25.25-.47.51-.7.76-.71.81-1.39,1.64-2.05,2.5-.33.42-.65.86-1,1.3s-.62.9-.93,1.35-.73,1.14-1.1,1.72-.56.93-.83,1.41-.47.83-.71,1.25a71.63,71.63,0,0,0-3.28,6.88c-.19.47-.4,1-.58,1.44-.47,1.15-.9,2.34-1.33,3.53,0,.05,0,.1,0,.15-.19.56-.39,1.11-.56,1.65-.4,1.2-.8,2.44-1.16,3.66v0c-.15.54-.31,1.09-.47,1.63s-.26,1-.39,1.46c-.16.65-.34,1.28-.49,1.93-.11.4-.2.77-.3,1.17,0,.07,0,.16,0,.23-.24,1-.48,2-.69,3-.12.52-.23,1-.34,1.56-.15.76-.31,1.51-.45,2.27s-.26,1.28-.37,1.93c-.32,1.76-.62,3.53-.89,5.28-.12.8-.25,1.6-.36,2.4-.09.63-.17,1.27-.25,1.9-.13.94-.26,1.9-.37,2.84s-.21,1.88-.31,2.81c-.08.59-.12,1.17-.18,1.75,0,.42-.09.81-.13,1.22-.09.85-.16,1.68-.23,2.5,0,.6-.09,1.2-.14,1.79a3.35,3.35,0,0,0,0,.54c-.06.57-.1,1.15-.13,1.71-.09,1.13-.15,2.24-.22,3.33s-.1,1.9-.14,2.82c-.05.67-.08,1.35-.09,2,0,1-.09,1.94-.12,2.89s0,1.79-.06,2.65c0,.46,0,.91,0,1.37s0,.88,0,1.31,0,.84,0,1.25c-.07,6.73.14,10.94.14,10.94l-3.55.2c-1.76.07-3.49.15-5.2.19s-3.37.05-5,.05c-.9,0-1.79,0-2.68,0l-2.63,0c-1.73-.06-3.45-.13-5.12-.22-1.27-.07-2.52-.16-3.74-.25s-2.43-.2-3.62-.33L74.4,331,74,331l-.16,0c-.75-.08-1.5-.18-2.24-.27-.5-.06-1-.13-1.46-.21l-1.44-.21c-.35,0-.68-.09-1-.15l-2.79-.49-2-.38-.28-.06-.89-.19-.78-.16h-.1l-.4-.09-.26-.06-.81-.19-.8-.19-2-.49c-.62-.16-1.23-.32-1.83-.5a8.5,8.5,0,0,1-.9-.25l-.89-.25c-1.2-.35-2.35-.72-3.5-1.08l-2.6-.91q-1.28-.46-2.52-1l-.1,0a4.32,4.32,0,0,0-.45-.19l-.22-.09c-.58-.25-1.17-.48-1.72-.73-.7-.29-1.35-.59-2-.88l-.37-.17c-.42-.21-.84-.42-1.26-.61l-.19-.08-.34-.18c-.37-.17-.74-.36-1.1-.54-.53-.29-1.06-.55-1.57-.83-.67-.36-1.31-.72-1.95-1.09s-1.27-.74-1.88-1.12l-.92-.58c-.3-.19-.61-.38-.9-.58L27.57,315c-.58-.4-1.13-.79-1.68-1.21-.28-.2-.56-.4-.83-.61s-.54-.42-.8-.64c-.5-.38-1-.77-1.47-1.18-.1-.08-.19-.17-.29-.24l-.16-.12-1.17-1L20.11,309c-.35-.32-.68-.64-1-1s-.87-.85-1.3-1.3-.85-.87-1.26-1.31-1-1.06-1.43-1.6c-.11-.13-.21-.26-.33-.38l-1-1.18c-.54-.67-1.06-1.35-1.57-2s-1-1.37-1.47-2.07S10,297,9.69,296.47c-.2-.3-.39-.61-.58-.93s-.36-.61-.55-.93c-.35-.6-.7-1.21-1-1.83h0c-.17-.31-.33-.61-.48-.91s-.31-.63-.46-.93a0,0,0,0,1,0,0s0,0,0,0,0,0,0-.05c-.34-.67-.65-1.34-1-2-.54-1.18-1-2.38-1.48-3.58-.19-.52-.38-1-.55-1.56s-.28-.82-.41-1.23-.35-1.11-.51-1.68-.38-1.3-.54-1.94-.3-1.16-.42-1.73c0-.13-.06-.26-.1-.39-.13-.58-.25-1.15-.35-1.73,0-.11-.05-.22-.08-.34-.1-.56-.2-1.1-.28-1.67s-.15-.93-.21-1.4-.14-1-.2-1.51-.11-1-.15-1.54c-2.11-22.9,8-44.37,21.71-49.4-.67-.49-1.38-1-2.11-1.63A26.53,26.53,0,0,1,12.6,209c-2.11-4.27-1.51-7.52-.62-9.47a8.05,8.05,0,0,1,.68-1.25l3.29-5c2.87-4.39,9.38-6.25,17.85-5.07a49.65,49.65,0,0,1,24.62,11.2,12.54,12.54,0,0,1,6.22-.52,22.56,22.56,0,0,1,6.38,2c2.72-4,8.48-5.85,16-5.16l1.34-1c2.61-1.89,5.06-3.8,7.38-5.72.43-.35.87-.71,1.29-1.08,1.09-.93,2.15-1.86,3.17-2.79.44-.38.86-.77,1.27-1.17s1.11-1,1.64-1.57c.34-.32.69-.64,1-1,.66-.64,1.27-1.28,1.86-1.91s1.16-1.26,1.69-1.86,1-1.2,1.52-1.79.93-1.15,1.35-1.7A26.81,26.81,0,0,0,113.7,169c.33-.74.64-1.5.94-2.27.4-1,.77-2,1.15-2.95a10.07,10.07,0,0,1-1-.48s0,0,0,0c-1.33-.73-4.91-3.31-5.94-4.74v0a27.22,27.22,0,0,1-5.15-7.91c-2.4-6.24-3.51-21.13,1.63-27.37l-1-2.71-.28-.28v-.55l-.71-2.15-.22-.73a6.48,6.48,0,0,1-.76-.06,18.7,18.7,0,0,1-9.5-3.26c-3.78-2.76-3.44-5.95-2.27-8.32-7.84-.6-24.88-4.26-32.8-23.69C47.17,55.31,75.72,30.71,87.33,24.71c1.54-.79,3.64-2.1,6.08-3.64,13-8.16,37.32-23.34,70.52-20.78,41,3.18,70.22,43.68,72,51.58,1.56,7.15-7.63,22.59-21.71,29.75a58.65,58.65,0,0,0,9.08,7h0a19.89,19.89,0,0,1,2.95-.74l0,0,.57-.07a.38.38,0,0,1,.1,0l2.41-.32v.19a15.27,15.27,0,0,1,3.74.38h.13l.19.06.32.08c14.6,4.56,23.52,15.86,25.8,60.05.34,6.56.51,12.73.51,18.55,0,16.21-1.31,29.6-3.94,40.6.37,4.76.85,10.41,1.39,16.44l0,.48c.46.07.89.14,1.31.23s.7.12,1,.19l1,.23c.33.07.64.15.94.24a22.85,22.85,0,0,1,5.52,2.21l.63.39a12.16,12.16,0,0,1,1.1.79l.09.07c.31.26.57.51.82.75s.32.34.46.51.25.31.37.46c.23.32.42.61.59.89l.31.63a5.21,5.21,0,0,1,.33,1.14s0,.06,0,.09a.25.25,0,0,1,0,.08,1.42,1.42,0,0,1,0,.19s.84,29.79-2.81,36a3.15,3.15,0,0,1-.22.33,6.58,6.58,0,0,1-.62.74l-.38.37-.48.42-.43.34c-.23.18-.49.36-.75.55l-.07,0-.33.21c-.4.27-.86.55-1.32.8l-.09,0c-.33.19-.68.37-1,.54a6.36,6.36,0,0,1-.59.28l-.62.28-.39.18.39-.16.07.58c.31,2.68.58,4.85.79,6.3a76.88,76.88,0,0,0,2.36,10.94,10.83,10.83,0,0,1,7.2,1c7.36,3.59,13.3,14.1,13.69,21.1a24.65,24.65,0,0,1-.9,8.33h0c6.82,7.78,14.56,16.56,18.49,20.73,10.43,11.06,16.82,23.9,21.65,37.2.11-.5.24-1,.35-1.58,3.72-16.72-2.79-43.3-2.86-43.56l-4.38-17.69L340,359.21c-.27-5.92-.37-14.29.18-25.11.52-10,5.31-38.68,5.52-39.9l1.94-11.62,2.21,11.57c.05.23,4.4,22.94,9.85,45.07,1.68,6.84,3.29,10.77,4.51,13,.73-11.59,3-40.86,7.15-56.81,8.32-31.7,28.65-57.8,29.5-58.88l5.84-7.43-2.11,9.2c-.09.35-8,35.14-9.25,61.52-.4,8.48,3.48,27.49,5.92,38.42,10-32.54,30.8-56.44,31.74-57.52l6.67-7.58-3.06,9.6c-.16.48-15.22,47.88-18,64-1.09,6.27-1.85,22-2.2,30.49,14.68-13.44,48-27.77,49.57-28.43l9.23-3.94-39.59,42.31c2.85-1.76,5.47-3.3,7.21-4.15,7.34-3.5,18-7.18,18.12-7.23ZM400.15,820.51c1.84-4.51,3.33-8.18,4.59-11.14-16.87-3.07-50.06-10.9-61.52-26.38-5.88-8-7-24.91-6.61-40.79-.65.22-1.33.38-2,.54a28,28,0,0,1-9,.19c4,14.58,6.87,31.26,2.82,40.63-5.95,13.78-27.63,23.65-51.23,33.39l-4,1.64.06,0c5.73,4.57,13.62,10.86,20.56,18.38,5.32,5.78,9.27,12.69,12.44,18.24.92,1.59,2,3.52,3,5.08,11.08-5.31,36.55-17.15,46.32-18.72,11.33-1.83,30.12-4.45,38.36-5.61C395.4,832.3,397.75,826.38,400.15,820.51Zm-1.34-392.23L384,429.48l12.59-18.63-14.19,2.88L381.1,393l-14,16.12s-4.11-3.34-8.6-11.85c-.16-.28-7.51,17.37-7.51,17.37l-10.91-13.43-4.32,12c1.58,5.4,3.19,11.71,5.16,20.18,9,38.59,17.12,92.54,17.39,115.45.21,18.73-7.58,27.69-14.17,31.9a28.24,28.24,0,0,1-14.94,4.4,15.64,15.64,0,0,1-6.45-1.15c-3.5-1.66-49.32-15.94-85-26.93l2.85,2c5.31,3.15,9.6,11.38,10.86,16,2.48,9.23,3.47,28.39-4.46,40.51-5.13,7.87-15.28,13.24-20.19,15.5h0c-.26.41-.55.82-.85,1.22-6,6.66-16.29,7.91-25,8.71h0a14.73,14.73,0,0,1-4.68,4.34c-7.25,3.27-15.87.77-23-2.24,0,.3-.09.58-.13.87-3.86,24.66-5.1,50.07-5,74.35a139.63,139.63,0,0,0,20.42,8.25c.18.06.35.12.51.16,1.11.35,2.2.67,3.29,1a.61.61,0,0,0,.13,0c1.06.32,2.14.61,3.2.88.54.15,1.08.3,1.63.43l.26.06c2.94.74,5.85,1.35,8.73,1.86,41.51,7.43,76.68-6.62,102.75-24.81q-4.87-9.11-9.59-18.32,5.83,8.43,11.47,17l3.93,6,1.07,1.63.31.46-.14.73c-.27,1.28-.53,2.56-.82,3.84-.66,3.2-1.37,6.4-2.1,9.59h0c-.35,1.59-.72,3.18-1.08,4.76,1,.57,2.13,1.09,3.24,1.57a38.47,38.47,0,0,0,8.29,2.64,21.71,21.71,0,0,0,13.38-1.27,14.87,14.87,0,0,0,1.48-.77,27.88,27.88,0,0,0,6-4.25h0a32.36,32.36,0,0,0,5.14-6q-2.1-2.41-4.15-4.88v0c-2-2.43-4.07-4.89-6.11-7.35-1-1.21-2-2.44-3-3.65.15-5,.32-10.14.55-15.34l.52-10.69c.18-3.22.39-6.4.61-9.49.29-3.84.59-7.68,1-11.51.67,5.84,1.19,11.68,1.63,17.54,10.08-11,16.27-20.4,17.93-24.17,19.24-43.49,20.64-84,21.85-119.64.55-15.77,1.06-30.66,3.11-44.16C385.14,474.85,395,441.07,398.81,428.28ZM340.34,574.81c7.26-4.66,11-13.6,10.9-25.87C351,526.43,342.94,473.21,334,435c-1.71-7.36-3.14-13.05-4.53-17.91-.3-1.12-.63-2.2-.94-3.25-.38-1.31-.77-2.6-1.15-3.91l-1.23-4.22c-1.42-4.9-2.85-9.73-4.36-14.46v0c-5-15.81-11.22-30.55-23-43-3.65-3.86-10.36-11.44-16.64-18.61a23.3,23.3,0,0,1-4.13,4.67c-10.53,9.13-13.74,9.3-38.76,10.56-4.53.22-9.8.49-16,.86-.16,17.27,12.19,65,24.12,104.75a8.36,8.36,0,0,1-3.59,9.52c-7.68,4.79-21,21.14-24.91,26a6.26,6.26,0,0,1-4.57,2.34h-.28a6.14,6.14,0,0,1-4.46-1.91c-6.09-6.34-23.45-21.3-28.62-25.74a7.74,7.74,0,0,1-2.08-8.81c7.29-18,14.31-88.65,15.74-103.44a33.55,33.55,0,0,1-4.12-6.28,1.11,1.11,0,0,1-.09-.19l-.62,0-11.67.61-32,28.62C128,387.55,109.23,413,92.72,435.38c-6.79,9.24-13.22,17.95-18.82,24.92l-2.43,3c-6.43,7.9-16.1,19.83-18.52,26-3.43,8.64-1.51,26.47,3.55,32.87,3.41,4.31,7.84,8.26,16.65,12.55,2.06-9.76,8.07-20.39,29.55-31.71,5.21-2.75,14.17-4.37,25.44-5.17a33.65,33.65,0,0,1-8.46-13.18,27.4,27.4,0,0,0,4.87,4.93,87.4,87.4,0,0,0,10.24-9.09c15.86-16.76,13.2-32.71,15.22-32.65,3.07.09-4.65,36.42-7.51,49.39,36.58-.62,87.26,4.31,119.4,7.44,5.94.58,11.71,1.15,16.3,1.55h0a22.83,22.83,0,0,0,2.46-2.67c3.43-4.45-2.82-31.91-2.82-31.91,11.81,17.8,20.6,32.72,14.41,39.17a5.22,5.22,0,0,1-2.83,2.71c-1.58.65-3.26.58-28.21-1.85-12.17-1.18-28-2.71-45-4.09a83.25,83.25,0,0,1,15.25,11.83c6.84,7.3,7.13,20.64,4.7,27.06a8.39,8.39,0,0,1-1.39,2.36c21.47,6.6,86,26.49,90.93,28.84C327.42,578.44,334.18,578.75,340.34,574.81ZM277.4,324.07a17.32,17.32,0,0,0,2-8.41h0c0-.31,0-.6,0-.93a15.15,15.15,0,0,0-1.35-5c-.07-.19-.17-.41-.27-.62-1.81-3.92-4.92-8-8.12-9.55A5.25,5.25,0,0,0,268,299a2.91,2.91,0,0,0-2.08.51l-.05,0a8,8,0,0,0-1.51,1.68c-.79,1.06-1.66,2.42-2.53,3.78-3.06,4.77-7.25,11.31-14,15.71A52.34,52.34,0,0,1,229,328a15.51,15.51,0,0,1,.92,5.89,12.3,12.3,0,0,1-2.32,4.51l11.36-.58c1.51-.06,2.93-.15,4.27-.22,1,0,1.94-.1,2.84-.15l3-.17c15.22-.92,17.07-2,24.37-8.29a17.19,17.19,0,0,0,3.92-4.89Zm-13-57.58c1.47-2.87,2.18-16,2.08-28.16-2.62,2-7.38,3-12.66,2.43-4.44-.49-8.28-2-10.64-4l-3.82,18.84-2.88-15.46-.75-4-.4-.37L234,234.65l-17.87-14.43-1.73-1.4-6.24-5-2.65-2.14-3.83-3.1a1,1,0,0,0-.26.12,7.05,7.05,0,0,0-1.37,1.46l.63.52c1.65,1.38,3.19,2.74,4.64,4.07,1.24,1.14,2.42,2.27,3.56,3.4.72.7,1.42,1.42,2.11,2.14,11.18,11.52,18.31,23.42,21.23,35.37,2.6,10.55,8.4,15.88,17.29,15.88a26.58,26.58,0,0,0,8.83-1.61A17.14,17.14,0,0,0,264.39,266.49ZM261.6,294a83,83,0,0,1-2.64-12.1c-.15-1-.3-2.3-.51-3.87-4.81,1.35-13,2.56-20.62-1.5-6.45-3.43-10.86-9.85-13.12-19-2.69-11-9.56-22.1-20.43-33-13.17,3-30.07,3.08-49.52,3.11l-3.19,0a27.62,27.62,0,0,0-3.55.22C152,234,160.79,246,173.22,253l.39.21.09.13s0,0,0,0a40.34,40.34,0,0,0,20.39,4.53,40,40,0,0,1-13-.11,41,41,0,0,1-5.1-1.19c4.43,6.81,8.8,17.14,8.64,31.3-.1,9.08-.37,16.44-.67,22.17l9.95,10.78c4.83-3,10.43-2.41,13.63-2.08l.66.08a41.21,41.21,0,0,0,6.92-.33c3.8-.37,6-.56,7.7,0a7.19,7.19,0,0,1,3.13,2.82,46.64,46.64,0,0,0,18-6.52c5.45-3.56,9-9.12,11.87-13.6C257.94,298,259.56,295.46,261.6,294ZM259,275.61c-.83.25-1.67.49-2.56.7C257.35,276.12,258.22,275.87,259,275.61Zm-7.17-68.85c3.57-14.62,4.68-33.69,3.42-58.29-2.39-46-11.73-52.74-22.8-56.22l-.19,0a13.56,13.56,0,0,0-4.11-.27l-.47.47-.77-.31a13.45,13.45,0,0,0-2.29.57l-.17.06h0l-.55.21a4.81,4.81,0,0,0-.54.16,1.93,1.93,0,0,0-.42.12c-4.58,1.47-8.21,5.34-10.69,9.53a27.29,27.29,0,0,1,3.49-7.65,19.3,19.3,0,0,1,3.51-4,86.36,86.36,0,0,1-9.34-7.68,32.41,32.41,0,0,1-18.18,1.24,123.61,123.61,0,0,1-20.25-6.22l-60.21,39.85-.38.09c-.06,0-1.07.23-2.65.41l.44,1.24.73,2.06.74,2.15,5.16,14.64.46,1.28.24.7,2.71,7.7.24.68a.31.31,0,0,1,0-.1c.12-.28.25-.54.37-.8,0,0,.06-.12.1-.22.21-.42.42-.83.65-1.24a.39.39,0,0,1,.06-.11c.07-.16.15-.29.22-.44.19-.32.46-.81.84-1.37a12.49,12.49,0,0,1,1.5-1.89,6.69,6.69,0,0,1,5.14-2.22c3,.18,5.85,2.66,9.76,6.09,9.14,8.05,23,20.2,49.24,10,15.1-5.85,21.44-24.32,26.07-37.8,3.22-9.4,5.4-15.6,9.85-15.46,2.89.1,5.53,1.53,7.86,4.3,9.39,11.2,12.58,42.76,7.72,76.78-2.06,14.49-6.94,24.47-15.26,31.12l14,11.33a16.74,16.74,0,0,1,9.18-5.06h0c.13-.28.28-.57.41-.86,0,0,0,0,0,0,.25-.53.5-1.05.73-1.59.05-.12.11-.25.17-.37.26-.58.51-1.17.74-1.78s.52-1.28.75-1.94.52-1.42.76-2.15c.45-1.37.89-2.78,1.28-4.23C251.44,208.42,251.67,207.59,251.86,206.76Zm1.16,15c-.1-1.18-.2-2.34-.3-3.47-.16.43-.33.85-.51,1.28s-.47,1.13-.73,1.69c0,.15-.13.3-.19.46h.15C252,221.67,252.5,221.69,253,221.71ZM241.08,611.78c6.32-9.67,5.86-26.18,3.55-34.83-.95-3.5-4.5-10-7.71-11.84l-.31-.18-13.05-9.28a66.15,66.15,0,0,1-13.39.5,141.26,141.26,0,0,0-26.36,1.3c-20.47,2.91-25.82,23.7-25.22,33.33.43,6.62,18,13.78,18,13.78,15.43,1.68,11.14,14.32,5.67,23.87.19-2.52,1.08-10.28-.56-13.44a81.09,81.09,0,0,1-7.14,5.78l-6.91,4.32c-.68.37-1.39.7-2.09,1a14.65,14.65,0,0,0,2,3.34l6.6,6.15a35.67,35.67,0,0,0,16.59,6.71,8.89,8.89,0,0,0,7.37-2.93h0a21.37,21.37,0,0,0,4.34-7.44c2.31-6.16,3.22-13.6,3.61-18.05.1,5.21.07,12.08-1.41,18.25a45.79,45.79,0,0,0,12.93-.54,11.11,11.11,0,0,0,5.21-2.45,16.32,16.32,0,0,0,4.21-6c2.48-5.7,3-13,3.15-18.33.72,5.27,1.18,11,.31,16.38C234.36,618.82,238.58,615.61,241.08,611.78ZM240.18,454a1.38,1.38,0,0,0,.55-1.53c-5.56-18.54-22.51-76.81-24.26-102.62-3.52,2.68-7.2,4.63-10.28,4.8h-.5a10.85,10.85,0,0,1-4.41-1c-2.11,21.48-8.65,83.26-15.79,100.88a.66.66,0,0,0,.15.8c6.47,5.54,21.84,18.84,28.42,25.51C220.68,472.61,232.31,458.89,240.18,454ZM229.34,183.49c2.62-18.36,2.84-36.36.63-50.66-1.59-10.28-4-15.61-5.67-18.1-.88,2.18-1.87,5.06-2.67,7.42-4.92,14.32-12.34,36-31.42,43.36A61.23,61.23,0,0,1,168.08,170c-18.08,0-29.59-10.11-36.47-16.18-1-.9-2.29-2-3.31-2.81a26.1,26.1,0,0,0-1.17,2.46c-.34.77-.7,1.69-1.13,2.79-.13.34-.27.69-.39,1.05a2.92,2.92,0,0,0-.14.38l0,0v0h0v0c-.13.34-.25.71-.39,1l-.17.53-.17.49v.07l0,.12c-.33.91-.65,1.82-1,2.75l-.39,1.11,0,.07,0,.1c-.11.28-.21.54-.29.82l-.13.33v0l0,0c-.9,2.49-1.73,4.58-2.54,6.46-2.7,6.26-11.55,16.25-23.93,25.9a49.46,49.46,0,0,1,15.92,8.41,26.32,26.32,0,0,1,7.18,8.42c2.13,4.26,1.52,7.51.63,9.47l-.07.15-.26.53a59.83,59.83,0,0,1,17.4-10.76,86.87,86.87,0,0,1,15-5.12c10-2.59,20.58-3,30.27-6.44,23.67-8.52,34.36-39.22,42.66-61v0c-.77,3-12.73,48.7-22.48,60.64l6.53,5.28,4.82,3.91c.64-.36,1.25-.75,1.83-1.14C223.15,205,227.48,196.53,229.34,183.49ZM229.63,544c1.75-4.63,1.32-14.89-3.26-19.79C220.6,518,203.53,506.3,194,506.3h-.06v-.4c-19.13-1.24-38.29-2-54.13-1.67l-2.9.08c-14.11.47-25.26,1.92-30.9,4.89-20,10.54-24.69,19.5-26.21,28.43-.32,1.94-.5,3.86-.64,5.81,0,.47-.09.94-.12,1.42l-.13,1.61c-.54,7,1.28,23.54,4.47,30.07,3.85,7.87,7.44,10.14,12.51,10.69a58.56,58.56,0,0,1,3.24-19.85,59.45,59.45,0,0,0,0,20,32.33,32.33,0,0,0,2.14,7,20.74,20.74,0,0,0,6.34,8.18l6.64,3.12a30.45,30.45,0,0,0,8.58.8,31.41,31.41,0,0,1,1.06-16.22,32,32,0,0,0,1.32,16.06,4,4,0,0,0,.15.45l3.55,6.58a20.94,20.94,0,0,0,4.93,4.83,28,28,0,0,0,27.61.74c1.84-1,9.67-6.38,11.39-7.68-4.15-2.27-7.26-3.23-10.26-5.38-2-1.41-7.12-5.78-7.12-5.78a14.93,14.93,0,0,1-3.86-8.88c-.95-15,8.11-37.48,31.26-40.76a146.34,146.34,0,0,1,27.55-1.35c5.12.14,9.16.25,13.23-.66C225.47,548,229.15,545.16,229.63,544ZM208,76.64c13.82-5.22,21.72-20,21-23.25-1.44-6.55-29.51-43.27-65.62-46.07-2.33-.18-4.6-.26-6.84-.26-27.44,0-48,12.85-59.42,20-2.56,1.6-4.79,3-6.56,3.92C80.9,36,55.65,57.46,64.34,78.82c7,17.3,22.5,19.34,28.81,19.42.61,0,1.12,0,1.5,0l54.46-34.16c-.9-1.43-1.75-2.87-2.56-4.38-1.4-2.83-3.25-5.94-2.91-9.18.84,3,3.45,5,5.65,7,1.47,1.23,3,2.44,4.61,3.56h0a.77.77,0,0,0,.22.16c.35.27.7.51,1.05.73a.44.44,0,0,0,.11.09l.58.42a.07.07,0,0,1,.06,0,.26.26,0,0,1,.11.07c.11.09.3.22.53.38.41.27,1,.65,1.74,1.12A102.23,102.23,0,0,0,174,71.88c.74.31,1.51.61,2.27.9a117.14,117.14,0,0,0,17,5A25.58,25.58,0,0,0,208,76.66Zm14.17,73c1.19-3.27,2-5.84,2.49-7.25C223.85,144.73,223,147.16,222.18,149.65Zm.8,183.06a16.86,16.86,0,0,0-1.09-3.79,23.36,23.36,0,0,0-1.57-3.36c-.09-.15-.16-.27-.24-.38a34,34,0,0,0-4.26.3,43.32,43.32,0,0,1-8.34.34l-.72-.08c-3-.33-7.15-.78-10,1.71-.23.29-.45.6-.67.91a10.47,10.47,0,0,0-1.63,3.13,1.46,1.46,0,0,0,0,.29,14.19,14.19,0,0,0,1,4.22,30.6,30.6,0,0,0,1.48,3.25l.55,1c.29.51.61,1,.93,1.48.17.25.33.5.51.73a18.58,18.58,0,0,0,1.48,1.88c.13.16.29.32.45.48s.34.35.5.52c1.61,1.55,3.16,2.38,4.4,2.29a8,8,0,0,0,3.48-1.27,23.67,23.67,0,0,0,2.43-1.61c.82-.63,1.66-1.3,2.48-2a.44.44,0,0,0,.11-.09c.72-.64,1.43-1.31,2.13-2a.9.9,0,0,0,.1-.12c.52-.5,1-1,1.51-1.54A32.54,32.54,0,0,0,223,332.71Zm-24.4-116.45-1.5-1.3v0l-8.91-6.48a250.4,250.4,0,0,0-37.83,4.67C137,217.45,124,224.71,115.88,236.38c-10.29,15-13.59,33.92-13.23,52.74.31-2.53.67-5.07,1.08-7.65,5.82-36.43,19-57.32,39.27-62.07a38.71,38.71,0,0,1,8.54-1h3.2C171.84,218.37,186.87,218.35,198.58,216.26ZM178.28,745.4l12.66-10.69a2.41,2.41,0,0,1-.41-.13c-8.23,6.62-15.81,12.31-21.26,15.51l-.42.25c.27,6.43.6,12.72,1,18.81l6.28-20.43.61-2Zm11.86-587.56.31-.16-.31.15a.6.6,0,0,1-.16.08Zm-.95,168.24-5.92-6.4-1.93-2.1-.28-.28a29.47,29.47,0,0,0-2.05,2.48,32.24,32.24,0,0,0-3.49,5.93,10.57,10.57,0,0,0,.38,10l1.33-.07,2.13-.11,2.15-.11,6.39-.33a15.84,15.84,0,0,1-.48-3.68A11.55,11.55,0,0,1,189.19,326.08Zm-5.84,405.25c-.3.22-.6.47-.89.69a137.46,137.46,0,0,1-14.35-5.84l.31,12.63c0,.28,0,.57,0,.85l.09,2.6v0l.9-.61c2.77-1.84,5.91-4.14,9.29-6.74.37-.26.74-.54,1.1-.84l2.49-1.93a1.09,1.09,0,0,0,.17-.13Zm-2.59,119.93c.29-4.07-4.36-12.33-7.76-18.37-3.73-6.66-6.69-11.94-7-16.64-.18-2.79-.38-5.72-.59-8.75s-.44-6.14-.66-9.33-.48-6.66-.74-10.13c-.74-10.7-1.5-22.22-2.07-34.31-.13-2.49-.23-5-.33-7.58-.3-7.67-.51-15.57-.58-23.59-.05-2.66-.06-5.35-.05-8.06.06-23.4,1.39-47.75,5.12-71.56.18-1.13.34-2.22.48-3.28A26.88,26.88,0,0,1,156.39,629c-1.07.18-2.14.3-3.22.38-8.66.59-17.78-2.58-23.7-8.79,2,16.37,5.51,45.23,9,75.83q.62,5.43,1.21,10.9h0c0,.34.08.64.12,1,1.94,17.56,3.51,32.39,4.73,44.89.26,2.5.49,4.91.72,7.23,1.42,14.83,2.35,26,2.93,34.53.2,2.76.35,5.22.47,7.43.9,16.53,0,19.18-.5,20.88a170.48,170.48,0,0,0-6.28,28.34l-.05.27c2,3.49,12,12,22,12.1H164C175.3,864,180.48,855,180.76,851.26Zm-8.31-240.69a2.63,2.63,0,0,0,.35.15c-.05-.12-.08-.24-.12-.35A.72.72,0,0,1,172.45,610.57ZM154.1,65.5l.42-.44a5.15,5.15,0,0,0-.56.16l-.18.06ZM141,793.17c-.62-8.77-1.5-19.06-2.58-30.25-7.42,2.65-13.51,4.67-15,5.15l-1,.31-.22,0h0a53.26,53.26,0,0,1-5.91,2.25,83.22,83.22,0,0,1-16.17,4.26l0-.29a112.1,112.1,0,0,0,15.19-6L78.57,770c1,1.41,2,2.88,3,4.4,4.22,6.47,7,11.66,8.32,15.93,4.15-.38,9.78-.73,16.38-.73A166.19,166.19,0,0,1,141,793.17ZM130.14,685.94c-3.46-30.25-6.76-57.2-8.37-70.19a36.33,36.33,0,0,1-8.51-2.06A127.15,127.15,0,0,0,116,653.14,98.29,98.29,0,0,0,130.14,685.94ZM112.45,221.82l-.24.2v0h0l0,0A1.64,1.64,0,0,0,112.45,221.82Zm-.82-80.67-4.44-12.61c-2,5.62-1.42,15.67.45,20.54a13.89,13.89,0,0,0,.63,1.4,13.84,13.84,0,0,1,1-5.79A11.26,11.26,0,0,1,111.63,141.15ZM111,234.23a20.93,20.93,0,0,1-8,1.41,35.16,35.16,0,0,1-4.77-.35c-12.54-1.77-25.79-9.68-30.33-18.09l-.19-.36a3.4,3.4,0,0,0-1.07-1.06c-2.43,1.1-4.89,2.14-7.38,3.07a97.94,97.94,0,0,1-17.4,4.9A75.61,75.61,0,0,1,30.18,225c-6.34,11.77-2.81,38.4-2.81,38.4-4.11,2.55-11-.5-11-.5-1.26,14.91,6.06,19.95,6.06,19.95s-.06,1.73-6.92.55a11.38,11.38,0,0,1-5.74-3.13,55.29,55.29,0,0,0,15.36,23.78c9.13,8.35,21.15,14.23,35.92,17.59a20,20,0,0,1-6-7.15s12.62,5.44,20.66,5.71c0,0-5-1.31-5.15-9.52,0,0,5.28,5.64,20.5,6.56l6-1.34C93.31,288.37,95,256.2,111,234.23Z"/><path class="cls-2" d="M404.74,809.37c-1.26,3-2.75,6.63-4.59,11.14-2.4,5.87-4.75,11.79-6.23,15.49-8.24,1.16-27,3.78-38.36,5.61-9.77,1.57-35.24,13.41-46.32,18.72-1-1.56-2.07-3.49-3-5.08-3.17-5.55-7.12-12.46-12.44-18.24-6.94-7.52-14.83-13.81-20.56-18.38l-.06,0,4-1.64c23.6-9.74,45.28-19.61,51.23-33.39,4.05-9.37,1.17-26-2.82-40.63a28,28,0,0,0,9-.19c.69-.16,1.37-.32,2-.54-.43,15.88.73,32.81,6.61,40.79C354.68,798.47,387.87,806.3,404.74,809.37Zm-74.95-7.54a3.81,3.81,0,0,0-6.05-3.66l-.5.34c-9.79,6.86-19.34,14.06-27.93,22.47a207.27,207.27,0,0,0,28.16-15.92,207.2,207.2,0,0,0-3.78,33,200.26,200.26,0,0,0,8.24-27.51C328.45,808.13,329.34,804.19,329.79,801.83Z"/><path class="cls-3" d="M384,429.48l14.84-1.2c-3.84,12.79-13.67,46.57-15.32,62.17-2.05,13.5-2.56,28.39-3.11,44.16-1.21,35.69-2.61,76.15-21.85,119.64-1.66,3.77-7.85,13.15-17.93,24.17-.44-5.86-1-11.7-1.63-17.54-.41,3.83-.71,7.67-1,11.51-.22,3.09-.43,6.27-.61,9.49l-.52,10.69c-.23,5.2-.4,10.37-.55,15.34,1,1.21,2,2.44,3,3.65,2,2.46,4.06,4.92,6.11,7.35v0q2.06,2.46,4.15,4.88a32.36,32.36,0,0,1-5.14,6h0a27.88,27.88,0,0,1-6,4.25,14.87,14.87,0,0,1-1.48.77,21.71,21.71,0,0,1-13.38,1.27,38.47,38.47,0,0,1-8.29-2.64c-1.11-.48-2.2-1-3.24-1.57.36-1.58.73-3.17,1.08-4.76h0c.73-3.19,1.44-6.39,2.1-9.59.29-1.28.55-2.56.82-3.84l.14-.73-.31-.46-1.07-1.63-3.93-6q-5.66-8.56-11.47-17,4.69,9.21,9.59,18.32c-26.07,18.19-61.24,32.24-102.75,24.81-2.88-.51-5.79-1.12-8.73-1.86l-.26-.06c-.55-.13-1.09-.28-1.63-.43-1.06-.27-2.14-.56-3.2-.88a.61.61,0,0,1-.13,0c-1.09-.32-2.18-.64-3.29-1-.16,0-.33-.1-.51-.16a139.63,139.63,0,0,1-20.42-8.25c-.1-24.28,1.14-49.69,5-74.35,0-.29.09-.57.13-.87,7.11,3,15.73,5.51,23,2.24a14.73,14.73,0,0,0,4.68-4.34h0c8.76-.8,19-2,25-8.71.3-.4.59-.81.85-1.22h0c4.91-2.26,15.06-7.63,20.19-15.5,7.93-12.12,6.94-31.28,4.46-40.51-1.26-4.64-5.55-12.87-10.86-16l-2.85-2c35.69,11,81.51,25.27,85,26.93a15.64,15.64,0,0,0,6.45,1.15,28.24,28.24,0,0,0,14.94-4.4c6.59-4.21,14.38-13.17,14.17-31.9C358,525.94,349.9,472,340.9,433.4c-2-8.47-3.58-14.78-5.16-20.18l4.32-12L351,414.67s7.35-17.65,7.51-17.37c4.49,8.51,8.6,11.85,8.6,11.85l14-16.12,1.27,20.7,14.19-2.88Z"/><path class="cls-3" d="M351.24,548.94c.14,12.27-3.64,21.21-10.9,25.87-6.16,3.94-12.92,3.63-14.58,2.84-4.94-2.35-69.46-22.24-90.93-28.84a8.39,8.39,0,0,0,1.39-2.36c2.43-6.42,2.14-19.76-4.7-27.06a83.25,83.25,0,0,0-15.25-11.83c16.95,1.38,32.78,2.91,45,4.09,24.95,2.43,26.63,2.5,28.21,1.85a5.22,5.22,0,0,0,2.83-2.71c6.19-6.45-2.6-21.37-14.41-39.17,0,0,6.25,27.46,2.82,31.91a22.83,22.83,0,0,1-2.46,2.67h0c-4.59-.4-10.36-1-16.3-1.55-32.14-3.13-82.82-8.06-119.4-7.44,2.86-13,10.58-49.3,7.51-49.39-2-.06.64,15.89-15.22,32.65a87.4,87.4,0,0,1-10.24,9.09,27.4,27.4,0,0,1-4.87-4.93,33.65,33.65,0,0,0,8.46,13.18c-11.27.8-20.23,2.42-25.44,5.17-21.48,11.32-27.49,21.95-29.55,31.71-8.81-4.29-13.24-8.24-16.65-12.55-5.06-6.4-7-24.23-3.55-32.87,2.42-6.14,12.09-18.07,18.52-26l2.43-3c5.6-7,12-15.68,18.82-24.92C109.23,413,128,387.55,146.17,371.26l32-28.62,11.67-.61.62,0a1.11,1.11,0,0,0,.09.19,33.55,33.55,0,0,0,4.12,6.28c-1.43,14.79-8.45,85.47-15.74,103.44a7.74,7.74,0,0,0,2.08,8.81c5.17,4.44,22.53,19.4,28.62,25.74a6.14,6.14,0,0,0,4.46,1.91h.28A6.26,6.26,0,0,0,219,486c3.9-4.91,17.23-21.26,24.91-26a8.36,8.36,0,0,0,3.59-9.52c-11.93-39.8-24.28-87.48-24.12-104.75,6.18-.37,11.45-.64,16-.86,25-1.26,28.23-1.43,38.76-10.56a23.3,23.3,0,0,0,4.13-4.67c6.28,7.17,13,14.75,16.64,18.61,11.74,12.45,17.92,27.19,23,43v0c1.51,4.73,2.94,9.56,4.36,14.46l1.23,4.22c.38,1.31.77,2.6,1.15,3.91.31,1.05.64,2.13.94,3.25C330.9,422,332.33,427.64,334,435,342.94,473.21,351,526.43,351.24,548.94Z"/><path d="M346,709.9l.48-.13s0,.19-.07.57C346.31,710.19,346.19,710,346,709.9Z"/><path d="M323.74,798.17a3.81,3.81,0,0,1,6.05,3.66c-.45,2.36-1.34,6.3-1.86,8.67A200.26,200.26,0,0,1,319.69,838a207.2,207.2,0,0,1,3.78-33A207.27,207.27,0,0,1,295.31,821c8.59-8.41,18.14-15.61,27.93-22.47Z"/><path class="cls-4" d="M279.4,315.66a17.32,17.32,0,0,1-2,8.41v0a17.19,17.19,0,0,1-3.92,4.89c-7.3,6.33-9.15,7.37-24.37,8.29l-3,.17c-.9.05-1.85.11-2.84.15-1.34.07-2.76.16-4.27.22l-11.36.58a12.3,12.3,0,0,0,2.32-4.51A15.51,15.51,0,0,0,229,328a52.34,52.34,0,0,0,18.8-7.25c6.72-4.4,10.91-10.94,14-15.71.87-1.36,1.74-2.72,2.53-3.78a8,8,0,0,1,1.51-1.68l.05,0A2.91,2.91,0,0,1,268,299a5.25,5.25,0,0,1,1.66.53c3.2,1.55,6.31,5.63,8.12,9.55.1.21.2.43.27.62a15.15,15.15,0,0,1,1.35,5c0,.33,0,.62,0,.93Z"/><path class="cls-5" d="M266.47,238.33c.1,12.21-.61,25.29-2.08,28.16a17.14,17.14,0,0,1-6,3.4,26.58,26.58,0,0,1-8.83,1.61c-8.89,0-14.69-5.33-17.29-15.88-2.92-12-10-23.85-21.23-35.37-.69-.72-1.39-1.44-2.11-2.14-1.14-1.13-2.32-2.26-3.56-3.4-1.45-1.33-3-2.69-4.64-4.07l-.63-.52a7.05,7.05,0,0,1,1.37-1.46,1,1,0,0,1,.26-.12l3.83,3.1,2.65,2.14,6.24,5,1.73,1.4L234,234.65l1.31,1.16.4.37.75,4,2.88,15.46,3.82-18.84c2.36,2,6.2,3.47,10.64,4C259.09,241.36,263.85,240.32,266.47,238.33Z"/><path d="M262.29,274.35v0l-.39.16Z"/><path class="cls-3" d="M259,281.85A83,83,0,0,0,261.6,294c-2,1.51-3.66,4.06-5.74,7.28-2.85,4.48-6.42,10-11.87,13.6a46.64,46.64,0,0,1-18,6.52,7.19,7.19,0,0,0-3.13-2.82c-1.67-.61-3.9-.42-7.7,0a41.21,41.21,0,0,1-6.92.33l-.66-.08c-3.2-.33-8.8-1-13.63,2.08L184,310c.3-5.73.57-13.09.67-22.17.16-14.16-4.21-24.49-8.64-31.3a41,41,0,0,0,5.1,1.19,40,40,0,0,0,13,.11,40.34,40.34,0,0,1-20.39-4.53s0,0,0,0l-.09-.13-.39-.21C160.79,246,152,234,148,227.8a27.62,27.62,0,0,1,3.55-.22l3.19,0c19.45,0,36.35-.07,49.52-3.11,10.87,10.91,17.74,22,20.43,33,2.26,9.17,6.67,15.59,13.12,19,7.57,4.06,15.81,2.85,20.62,1.5C258.66,279.55,258.81,280.85,259,281.85Z"/><path d="M256.47,276.31c.89-.21,1.73-.45,2.56-.7C258.22,275.87,257.35,276.12,256.47,276.31Z"/><path class="cls-3" d="M255.28,148.47c1.26,24.6.15,43.67-3.42,58.29-.19.83-.42,1.66-.63,2.46-.39,1.45-.83,2.86-1.28,4.23-.24.73-.49,1.44-.76,2.15s-.48,1.31-.75,1.94-.48,1.2-.74,1.78c-.06.12-.12.25-.17.37-.23.54-.48,1.06-.73,1.59,0,0,0,0,0,0-.15.29-.29.58-.44.86a16.74,16.74,0,0,0-9.18,5.06l-14-11.33c8.32-6.65,13.2-16.63,15.26-31.12,4.86-34,1.67-65.58-7.72-76.78-2.33-2.77-5-4.2-7.86-4.3-4.45-.14-6.63,6.06-9.85,15.46-4.63,13.48-11,32-26.07,37.8-26.28,10.2-40.1-1.95-49.24-10-3.91-3.43-6.72-5.91-9.76-6.09a6.69,6.69,0,0,0-5.14,2.22,12.49,12.49,0,0,0-1.5,1.89c-.38.56-.65,1-.84,1.37-.07.15-.15.28-.22.44a.39.39,0,0,0-.06.11c-.23.41-.44.82-.65,1.24,0,.1-.1.22-.1.22-.12.26-.25.52-.37.8l-.29-.58-2.71-7.7-.24-.7-.46-1.28-5.16-14.64-.74-2.15-.73-2.06-.44-1.24c1.58-.18,2.59-.4,2.65-.41l.38-.09,60.21-39.85a123.61,123.61,0,0,0,20.25,6.22,32.41,32.41,0,0,0,18.18-1.24,86.36,86.36,0,0,0,9.34,7.68,19.3,19.3,0,0,0-3.51,4,27.29,27.29,0,0,0-3.49,7.65c2.48-4.19,6.11-8.06,10.69-9.53a1.93,1.93,0,0,1,.42-.12h.16l.38-.16.55-.21h0l.17-.06a13.45,13.45,0,0,1,2.29-.57l.77.31.47-.47a13.56,13.56,0,0,1,4.11.27l.19,0C243.55,95.73,252.89,102.42,255.28,148.47Zm-68.59-11.61c4.85-3.55,9.87-9,9.52-13.72s-6-13.94-13.08-18.88a17.32,17.32,0,0,0-9.81-3.57,11.52,11.52,0,0,0-3.12.43c-8.52,2.36-15.88,18.3-15.69,29.24.05,4.26,1.28,7.58,3.58,9.57a15.29,15.29,0,0,0,4.25,2.59,16.59,16.59,0,0,0,6.2,1.14C175,143.66,181.79,140.48,186.69,136.86Z"/><path d="M246.77,221.32c-.13.29-.28.58-.41.86h0C246.48,221.9,246.62,221.61,246.77,221.32Z"/><path class="cls-3" d="M244.63,577c2.31,8.65,2.77,25.16-3.55,34.83-2.5,3.83-6.72,7-10.62,9.41.87-5.4.41-11.11-.31-16.38-.11,5.28-.67,12.63-3.15,18.33a16.32,16.32,0,0,1-4.21,6,11.11,11.11,0,0,1-5.21,2.45,45.79,45.79,0,0,1-12.93.54c1.48-6.17,1.51-13,1.41-18.25-.39,4.45-1.3,11.89-3.61,18.05a21.37,21.37,0,0,1-4.34,7.44h0a8.89,8.89,0,0,1-7.37,2.93,35.67,35.67,0,0,1-16.59-6.71l-6.6-6.15a14.65,14.65,0,0,1-2-3.34c.7-.33,1.41-.66,2.09-1l6.91-4.32a81.09,81.09,0,0,0,7.14-5.78c1.64,3.16.75,10.92.56,13.44,5.47-9.55,9.76-22.19-5.67-23.87,0,0-17.58-7.16-18-13.78-.6-9.63,4.75-30.42,25.22-33.33a141.26,141.26,0,0,1,26.36-1.3,66.15,66.15,0,0,0,13.39-.5l13.05,9.28.31.18C240.13,566.94,243.68,573.45,244.63,577Z"/><path class="cls-4" d="M240.73,452.49a1.38,1.38,0,0,1-.55,1.53c-7.87,4.87-19.5,18.59-26.12,26.86-6.58-6.67-21.95-20-28.42-25.51a.66.66,0,0,1-.15-.8c7.14-17.62,13.68-79.4,15.79-100.88a10.85,10.85,0,0,0,4.41,1h.5c3.08-.17,6.76-2.12,10.28-4.8C218.22,375.68,235.17,434,240.73,452.49ZM229,456.59c-.36-3.38-1-6.68-1.63-9.95-.76-3.52-1.59-7-2.57-10.48l-.78-.42c-2-1.13-4.23-2.31-6.25-3.39-.71,2.1-1.5,4.43-2.11,6.52a140.82,140.82,0,0,0,3.47,24.84c.33-2.48.56-5,.69-7.47l6.61-4.86C227.18,453.13,228,454.87,229,456.59Zm-20.33-15.67.4-1.37-1-.71c-2.9-2.14-6-4.15-9.06-6-.64,2.15-1.29,4.27-1.75,6.47.88-1.1,1.68-2.24,2.45-3.39,1.6,1.7,3.24,3.33,4.92,4.91-.92,2.22-1.76,4.48-2.55,6.75l-4.16,1.25,4.48,1.66c1.12,1.66,2.26,3.3,3.45,4.91-.92,1.41-1.79,2.84-2.66,4.31-2.23-1.51-4.49-2.94-6.83-4.26,2.3,2.65,4.73,5.15,7.26,7.58,2.36-2.39,4.62-4.92,6.74-7.49-1.34-2.32-2.71-4.66-4.18-6.93C207.06,446,207.89,443.5,208.63,440.92Z"/><path d="M239.27,274.85h0Z"/><path d="M238.21,274.27c.21.13.43.24.65.36a8.72,8.72,0,0,1-.84-.46Z"/><path d="M238.21,274.27l-.19-.1c-.12-.07-.24-.13-.36-.21l0,0Z"/><path class="cls-2" d="M230,132.83c2.21,14.3,2,32.3-.63,50.66-1.86,13-6.19,21.48-13.62,26.53-.58.39-1.19.78-1.83,1.14l-4.82-3.91L202.54,202c9.75-11.94,21.71-57.62,22.48-60.64v0c-8.3,21.82-19,52.52-42.66,61-9.69,3.48-20.23,3.85-30.27,6.44a86.87,86.87,0,0,0-15,5.12,59.83,59.83,0,0,0-17.4,10.76l.26-.53L120,224c.89-2,1.5-5.21-.63-9.47a26.32,26.32,0,0,0-7.18-8.42,49.46,49.46,0,0,0-15.92-8.41c12.38-9.65,21.23-19.64,23.93-25.9.81-1.88,1.64-4,2.54-6.46l0,0v0l.13-.33c.08-.28.18-.54.29-.82l0-.1,0-.07.39-1.11c.34-.93.66-1.84,1-2.75l0-.12v-.07l.17-.49.17-.53c.14-.33.26-.7.39-1v0h0v0l0,0a2.92,2.92,0,0,1,.14-.38c.12-.36.26-.71.39-1.05.43-1.1.79-2,1.13-2.79A26.1,26.1,0,0,1,128.3,151c1,.82,2.28,1.91,3.31,2.81C138.49,159.91,150,170,168.08,170a61.23,61.23,0,0,0,22.13-4.51c19.08-7.38,26.5-29,31.42-43.36.8-2.36,1.79-5.24,2.67-7.42C226,117.22,228.38,122.55,230,132.83Z"/><path class="cls-3" d="M226.37,524.19c4.58,4.9,5,15.16,3.26,19.79-.48,1.18-4.16,4.06-6,4.48-4.07.91-8.11.8-13.23.66a146.34,146.34,0,0,0-27.55,1.35c-23.15,3.28-32.21,25.81-31.26,40.76a14.93,14.93,0,0,0,3.86,8.88s5.16,4.37,7.12,5.78c3,2.15,6.11,3.11,10.26,5.38-1.72,1.3-9.55,6.68-11.39,7.68a28,28,0,0,1-27.61-.74,20.94,20.94,0,0,1-4.93-4.83l-3.55-6.58a4,4,0,0,1-.15-.45,32,32,0,0,1-1.32-16.06,31.41,31.41,0,0,0-1.06,16.22,30.45,30.45,0,0,1-8.58-.8l-6.64-3.12a20.74,20.74,0,0,1-6.34-8.18,32.33,32.33,0,0,1-2.14-7,59.45,59.45,0,0,1,0-20,58.56,58.56,0,0,0-3.24,19.85c-5.07-.55-8.66-2.82-12.51-10.69-3.19-6.53-5-23.11-4.47-30.07l.13-1.61c0-.48.07-1,.12-1.42.14-2,.32-3.87.64-5.81C81.29,528.7,86,519.74,106,509.2c5.64-3,16.79-4.42,30.9-4.89l2.9-.08c15.84-.35,35,.43,54.13,1.67v.4H194C203.53,506.3,220.6,518,226.37,524.19Z"/><path class="cls-4" d="M229,53.39c.71,3.3-7.19,18-21,23.25v0a25.58,25.58,0,0,1-14.77,1.14,117.14,117.14,0,0,1-17-5c-.76-.29-1.53-.59-2.27-.9A102.23,102.23,0,0,1,158.31,64c-.75-.47-1.33-.85-1.74-1.12l0,0-.56-.35a.26.26,0,0,0-.11-.07.07.07,0,0,0-.06,0l-.58-.42a.44.44,0,0,1-.11-.09L153.94,61l0,0h0c-1.58-1.12-3.14-2.33-4.61-3.56-2.2-2-4.81-4-5.65-7-.34,3.24,1.51,6.35,2.91,9.18.81,1.51,1.66,3,2.56,4.38L94.65,98.23c-.38,0-.89,0-1.5,0-6.31-.08-21.76-2.12-28.81-19.42C55.65,57.46,80.9,36,90.58,31c1.77-.92,4-2.32,6.56-3.92,11.43-7.14,32-20,59.42-20,2.24,0,4.51.08,6.84.26C199.51,10.12,227.58,46.84,229,53.39Z"/><path class="cls-4" d="M227.33,446.64c.67,3.27,1.27,6.57,1.63,9.95-.93-1.72-1.78-3.46-2.57-5.21l-6.61,4.86c-.13,2.49-.36,5-.69,7.47a140.82,140.82,0,0,1-3.47-24.84c.61-2.09,1.4-4.42,2.11-6.52,2,1.08,4.26,2.26,6.25,3.39l.78.42C225.74,439.63,226.57,443.12,227.33,446.64Zm-7.38,6,5.28-3.87c-.2-.42-.36-.86-.55-1.29-1.15-2.81-2.27-5.64-3.24-8.5-.42-.21-.84-.42-1.25-.61-.11.36-.22.71-.35,1.07,0-.14,0-.29,0-.43l-.1.77c.05-.12.07-.23.12-.34C220,443.82,220.1,448.22,220,452.62Z"/><path class="cls-4" d="M225.23,448.75,220,452.62c.15-4.4.07-8.8-.11-13.2.13-.36.24-.71.35-1.07.41.19.83.4,1.25.61,1,2.86,2.09,5.69,3.24,8.5C224.87,447.89,225,448.33,225.23,448.75Z"/><path d="M223.91,92.93l-.38.16h-.16A4.81,4.81,0,0,1,223.91,92.93Z"/><path class="cls-4" d="M221.89,328.92a16.86,16.86,0,0,1,1.09,3.79,32.54,32.54,0,0,1-4.92,6.25c-.48.52-1,1-1.51,1.54a.9.9,0,0,1-.1.12c-.7.69-1.41,1.36-2.13,2a.44.44,0,0,1-.11.09c-.82.74-1.66,1.41-2.48,2a23.67,23.67,0,0,1-2.43,1.61,8,8,0,0,1-3.48,1.27c-1.24.09-2.79-.74-4.4-2.29-.16-.17-.35-.34-.5-.52s-.32-.32-.45-.48a18.58,18.58,0,0,1-1.48-1.88c-.18-.23-.34-.48-.51-.73-.32-.48-.64-1-.93-1.48l-.55-1a30.6,30.6,0,0,1-1.48-3.25,14.19,14.19,0,0,1-1-4.22,1.46,1.46,0,0,1,0-.29,10.47,10.47,0,0,1,1.63-3.13c.22-.31.44-.62.67-.91,2.85-2.49,7-2,10-1.71l.72.08a43.32,43.32,0,0,0,8.34-.34,34,34,0,0,1,4.26-.3c.08.11.15.23.24.38A23.36,23.36,0,0,1,221.89,328.92Z"/><path class="cls-4" d="M219.82,439c0,.14,0,.29,0,.43s-.07.22-.12.34Z"/><path class="cls-4" d="M209,439.55l-.4,1.37c-.74,2.58-1.57,5.12-2.46,7.64,1.47,2.27,2.84,4.61,4.18,6.93-2.12,2.57-4.38,5.1-6.74,7.49-2.53-2.43-5-4.93-7.26-7.58,2.34,1.32,4.6,2.75,6.83,4.26.87-1.47,1.74-2.9,2.66-4.31-1.19-1.61-2.33-3.25-3.45-4.91l-4.48-1.66,4.16-1.25c.79-2.27,1.63-4.53,2.55-6.75-1.68-1.58-3.32-3.21-4.92-4.91-.77,1.15-1.57,2.29-2.45,3.39.46-2.2,1.11-4.32,1.75-6.47,3.1,1.9,6.16,3.91,9.06,6Z"/><path class="cls-2" d="M197.08,215l1.5,1.3c-11.71,2.09-26.74,2.11-43.84,2.14h-3.2a38.71,38.71,0,0,0-8.54,1c-20.24,4.75-33.45,25.64-39.27,62.07-.41,2.58-.77,5.12-1.08,7.65-.36-18.82,2.94-37.75,13.23-52.74,8.13-11.67,21.07-18.93,34.45-23.21a250.4,250.4,0,0,1,37.83-4.67l8.91,6.48Z"/><path d="M196.21,123.14c.35,4.71-4.67,10.17-9.52,13.72s-11.68,6.8-18.15,6.8a16.59,16.59,0,0,1-6.2-1.14,15.29,15.29,0,0,1-4.25-2.59c-2.3-2-3.53-5.31-3.58-9.57-.19-10.94,7.17-26.88,15.69-29.24a11.52,11.52,0,0,1,3.12-.43,17.32,17.32,0,0,1,9.81,3.57C190.18,109.2,195.84,118.31,196.21,123.14ZM184.42,133.3c5.12-3.83,7.72-7.9,7.57-9.85-.25-3.28-4.86-11.22-11.29-15.73a13.47,13.47,0,0,0-7.38-2.78,7.07,7.07,0,0,0-2,.26c-3.33.92-6.93,5.6-9.44,11.25a17.71,17.71,0,0,1,2.06-1.17c4.31-1.87,7.79-1.72,11.23,1S184,128.61,184.42,133.3Z"/><path class="cls-3" d="M192,123.45c.15,2-2.45,6-7.57,9.85-.44-4.69-5.88-14.35-9.24-17s-6.92-2.88-11.23-1a17.71,17.71,0,0,0-2.06,1.17c2.51-5.65,6.11-10.33,9.44-11.25a7.07,7.07,0,0,1,2-.26,13.47,13.47,0,0,1,7.38,2.78C187.13,112.23,191.74,120.17,192,123.45Z"/><path class="cls-2" d="M190.94,734.71,178.28,745.4l-1.57,1.34-.61,2-6.28,20.43c-.37-6.09-.7-12.38-1-18.81l.42-.25c5.45-3.2,13-8.89,21.26-15.51A2.41,2.41,0,0,0,190.94,734.71Z"/><path d="M190.45,157.68l-.31.16h0Z"/><path d="M190.14,157.83h0l-.16.07A.6.6,0,0,0,190.14,157.83Z"/><path class="cls-4" d="M183.27,319.68l5.92,6.4a11.55,11.55,0,0,0-1.77,5.32,15.84,15.84,0,0,0,.48,3.68l-6.39.33-2.15.11-2.13.11-1.33.07a10.57,10.57,0,0,1-.38-10,32.24,32.24,0,0,1,3.49-5.93,29.47,29.47,0,0,1,2.05-2.48l.28.28Z"/><path d="M182.46,732c.29-.22.59-.47.89-.69l-.88.7Z"/><path class="cls-5" d="M173,832.89c3.4,6,8.05,14.3,7.76,18.37C180.48,855,175.3,864,164,864h-.28c-9.93-.13-20-8.61-22-12.1l.05-.27a170.48,170.48,0,0,1,6.28-28.34c.55-1.7,1.4-4.35.5-20.88-.12-2.21-.27-4.67-.47-7.43-.58-8.5-1.51-19.7-2.93-34.53-.23-2.32-.46-4.73-.72-7.23-1.22-12.5-2.79-27.33-4.73-44.89,0-.32-.07-.62-.12-1h0q-.59-5.46-1.21-10.9c-3.46-30.6-7-59.46-9-75.83,5.92,6.21,15,9.38,23.7,8.79,1.08-.08,2.15-.2,3.22-.38a26.88,26.88,0,0,0,10.19,10.65c-.14,1.06-.3,2.15-.48,3.28C162.37,666.75,161,691.1,161,714.5c0,2.71,0,5.4.05,8.06.07,8,.28,15.92.58,23.59.1,2.56.2,5.09.33,7.58.57,12.09,1.33,23.61,2.07,34.31.26,3.47.5,6.85.74,10.13s.45,6.31.66,9.33.41,6,.59,8.75C166.31,821,169.27,826.23,173,832.89Z"/><path d="M172.8,610.72a2.63,2.63,0,0,1-.35-.15.72.72,0,0,0,.23-.2C172.72,610.48,172.75,610.6,172.8,610.72Z"/><path class="cls-4" d="M156.6,62.89l0,0c-.23-.16-.42-.29-.53-.38Z"/><path class="cls-4" d="M155.18,61.93c-.35-.23-.7-.47-1.05-.73a.77.77,0,0,1-.22-.16l0,0Z"/><path d="M154.52,65.06l-.42.44-.32-.22.18-.06A5.15,5.15,0,0,1,154.52,65.06Z"/><path class="cls-2" d="M138.37,762.92c1.08,11.19,2,21.48,2.58,30.25a166.19,166.19,0,0,0-34.72-3.55c-6.6,0-12.23.35-16.38.73-1.37-4.27-4.1-9.46-8.32-15.93-1-1.52-2-3-3-4.4l36.73-1.37a112.1,112.1,0,0,1-15.19,6l0,.29a83.22,83.22,0,0,0,16.17-4.26,53.26,53.26,0,0,0,5.91-2.25h0l.22,0,1-.31C124.86,767.59,131,765.57,138.37,762.92Z"/><path class="cls-3" d="M121.77,615.75c1.61,13,4.91,39.94,8.37,70.19A98.29,98.29,0,0,1,116,653.14a127.15,127.15,0,0,1-2.71-39.45A36.33,36.33,0,0,0,121.77,615.75Z"/><path d="M118.73,148.59l.29.58a.31.31,0,0,0,0,.1Z"/><path class="cls-3" d="M107.19,128.54l4.44,12.61a11.26,11.26,0,0,0-2.41,3.54,13.84,13.84,0,0,0-1,5.79,13.89,13.89,0,0,1-.63-1.4C105.77,144.21,105.17,134.16,107.19,128.54Z"/><path class="cls-2" d="M103,235.64a20.93,20.93,0,0,0,8-1.41c-16,22-17.68,54.14-13.88,81.69l-6,1.34c-15.22-.92-20.5-6.56-20.5-6.56.17,8.21,5.15,9.52,5.15,9.52-8-.27-20.66-5.71-20.66-5.71a20,20,0,0,0,6,7.15c-14.77-3.36-26.79-9.24-35.92-17.59A55.29,55.29,0,0,1,9.81,280.29a11.38,11.38,0,0,0,5.74,3.13c6.86,1.18,6.92-.55,6.92-.55s-7.32-5-6.06-19.95c0,0,6.85,3.05,11,.5,0,0-3.53-26.63,2.81-38.4a75.61,75.61,0,0,0,11.64-1.27,97.94,97.94,0,0,0,17.4-4.9c2.49-.93,5-2,7.38-3.07a3.4,3.4,0,0,1,1.07,1.06l.19.36c4.54,8.41,17.79,16.32,30.33,18.09A35.16,35.16,0,0,0,103,235.64Z"/><g class="cls-6"><path class="cls-7" d="M20,203a4.24,4.24,0,0,0-1,1.61L42.75,222a30.43,30.43,0,0,0,3.51.26Z"/><path class="cls-8" d="M116.4,223.38a4.56,4.56,0,0,1-.41.75l-3.09,4.71-.1.15a2.75,2.75,0,0,0,.17-.29,3.48,3.48,0,0,0,.2-.38c.79-1.75.66-3.92-.57-6.4a22.92,22.92,0,0,0-6.18-7.17A46.29,46.29,0,0,0,85,205.45a29.47,29.47,0,0,0-5.17-.29c-.29,0-.58,0-.87.05a6.2,6.2,0,0,0-.62.06l-.57.07-.54.07-.67.13-.55.13-.31.08a8,8,0,0,0-.78.24,8.67,8.67,0,0,0-1,.4,3.36,3.36,0,0,0-.33.16l-.11,0-.33.17a2.2,2.2,0,0,0-.3.19h0a7.3,7.3,0,0,0-1.06.79c-.13.11-.25.23-.36.34l-.36.41,0,.06-.27.38a5.64,5.64,0,0,0-.91,3.1,20.28,20.28,0,0,0-8.7-3.64l-.43-.05c-.19,0-.39,0-.57,0-2.45-.16-4.23.45-5.09,1.6-5.44-5.78-15.23-10.78-24.46-12.09-7.14-1-12.28.46-14.28,3.5l3.24-4.93c2-3,7.14-4.49,14.28-3.5,9.23,1.31,19,6.3,24.46,12.09,1-1.31,3.12-1.92,6.08-1.5a20,20,0,0,1,7.93,3.11L74,204c2-3,7.14-4.49,14.28-3.49a46.24,46.24,0,0,1,21.43,9.3,23,23,0,0,1,6.18,7.17C117.07,219.46,117.2,221.64,116.4,223.38Z"/><path class="cls-9" d="M61.56,216.5l-3.06,4.65a.65.65,0,0,1,.09-.16c0-.08.09-.17.13-.27a2.78,2.78,0,0,0,.16-.4c0-.11.08-.22.11-.32a1.21,1.21,0,0,0,0-.18c0-.12.06-.22.08-.34a6.14,6.14,0,0,0,.1-1.67l0-.29a2.71,2.71,0,0,0-.06-.38.59.59,0,0,0,0-.13c0-.2-.08-.41-.14-.62s-.11-.43-.19-.66v0c-.09-.25-.19-.51-.31-.77s-.19-.16-.25-.3-.15-.27-.19-.36,0-.34-.12-.5a1.8,1.8,0,0,1,.09-1.2,1.06,1.06,0,0,1,.12-.2.05.05,0,0,1,0,0,3.15,3.15,0,0,1,2.35-1.11,3,3,0,0,1,.44,0,7.2,7.2,0,0,1,.8,0l.42,0A6.12,6.12,0,0,1,61.56,216.5Z"/><path class="cls-4" d="M112.6,221.92a22.92,22.92,0,0,0-6.18-7.17A46.29,46.29,0,0,0,85,205.45a29.47,29.47,0,0,0-5.17-.29c-.29,0-.58,0-.87.05a6.2,6.2,0,0,0-.62.06l-.57.07-.54.07-.67.13-.55.13-.31.08a8,8,0,0,0-.78.24,8.67,8.67,0,0,0-1,.4,3.36,3.36,0,0,0-.33.16l-.11,0-.33.17a2.2,2.2,0,0,0-.3.19h0a7.3,7.3,0,0,0-1.06.79c-.13.11-.25.23-.36.34l-.36.41,0,.06-.27.38a5.64,5.64,0,0,0-.91,3.1,20.28,20.28,0,0,0-8.7-3.64l-.43-.05c-.19,0-.39,0-.57,0-2.45-.16-4.23.45-5.09,1.6-5.44-5.78-15.23-10.78-24.46-12.09-7.7-1.07-13.09.71-14.69,4.24-.79,1.75-.66,3.92.58,6.39a22.68,22.68,0,0,0,6.18,7.17,46.15,46.15,0,0,0,21.43,9.31c7.15,1,12.29-.46,14.28-3.5l.17-.27a.65.65,0,0,1,.09-.16c0-.08.09-.17.13-.27a2.78,2.78,0,0,0,.16-.4c0-.11.08-.22.11-.32a1.21,1.21,0,0,0,0-.18c0-.12.06-.22.08-.34a6.14,6.14,0,0,0,.1-1.67l0-.29a2.71,2.71,0,0,0-.06-.38.59.59,0,0,0,0-.13c0-.2-.08-.41-.14-.62s-.12-.43-.19-.66v0c-.09-.25-.19-.51-.31-.77,0,0-.51-1-.56-1.16a1.8,1.8,0,0,1,.09-1.2.82.82,0,0,1,.12-.2.05.05,0,0,1,0,0,3.15,3.15,0,0,1,2.35-1.11,3,3,0,0,1,.44,0,7.2,7.2,0,0,1,.8,0l.42,0,.4,0c3.46.49,7.31,2.73,8.39,4.91a.41.41,0,0,0,0,.09c3.85,7.39,16.11,14.66,27.51,16.26,7.14,1,12.28-.45,14.27-3.49l0-.07a2.75,2.75,0,0,0,.17-.29,3.48,3.48,0,0,0,.2-.38C114,226.57,113.83,224.4,112.6,221.92Zm-57.16-3.27a4.68,4.68,0,0,1-1.14,1.48l-.18.15-.12.1-.06.05-.15.1-.24.16c-2.23,1.43-6,2-10.74,1.35l-.2,0c-9.8-1.37-20.16-7.27-23.08-13.13s2.67-9.54,12.47-8.17c9.44,1.33,19.38,6.85,22.72,12.5A7.79,7.79,0,0,0,55,214a4.08,4.08,0,0,0,.28.44A5,5,0,0,1,55.44,218.65Zm41.61,11c-9.41-1.33-19.34-6.82-22.7-12.45l-.32-.56a.52.52,0,0,0-.06-.13c-1.53-3.08-.74-5.54,1.79-7,2.28-1.34,6-1.83,10.68-1.17,9.8,1.38,20.14,7.26,23.07,13.14S106.84,231,97.05,229.65Z"/><path class="cls-7" d="M30.84,200.58a23,23,0,0,0-6.11.13L52.61,221.2a9.39,9.39,0,0,0,1-.51l.19-.13.19-.14.06,0,.12-.09.14-.11,0,0a4.5,4.5,0,0,0,1.15-1.48Z"/><path class="cls-10" d="M32,200.71c-9.8-1.37-15.39,2.29-12.46,8.16S32.81,220.64,42.61,222l.14,0L19,204.58A4.24,4.24,0,0,1,20,203L46.26,222.3a28.54,28.54,0,0,1-3.45-.26c4.76.64,8.51.08,10.75-1.35a9.39,9.39,0,0,1-1,.51L24.73,200.71a23,23,0,0,1,6.11-.13l24.6,18.07a5.12,5.12,0,0,0-.11-4.24,1.91,1.91,0,0,1-.28-.44,5.1,5.1,0,0,1-.33-.77C51.38,207.55,41.43,202,32,200.71Z"/><path class="cls-7" d="M74.66,210.31a3.07,3.07,0,0,0-.26.25l-.08.09a4.46,4.46,0,0,0-.76,1.16L98,229.76a26.58,26.58,0,0,0,3.37.16Z"/><path class="cls-7" d="M86.1,208.31a23.5,23.5,0,0,0-6.37-.05l27.73,20.36a5.06,5.06,0,0,0,2.56-2.74Z"/><path class="cls-10" d="M73.56,211.81,98,229.76a26.58,26.58,0,0,0,3.37.16l-26.7-19.61-.1.09c2-2,6.27-2.84,11.87-2.05,9.8,1.37,20.16,7.27,23.08,13.14S106.84,231,97,229.65,76.89,222.38,74,216.51c-1.19-2.38-1-4.39.34-5.85A4.46,4.46,0,0,0,73.56,211.81ZM110,225.88,86.1,208.31a23.5,23.5,0,0,0-6.37-.05l27.73,20.36a5.06,5.06,0,0,0,2.56-2.74Z"/></g></g></g></svg>