<svg id="Calque_1" data-name="Calque 1" xmlns="http://www.w3.org/2000/svg" viewBox="0 0 500 500"><defs><style>.cls-1{fill:#ff4e00;}</style></defs><path d="M275.05,317V262.73c0-3.37-1.16-4.51-4.56-4.52-2.66,0-5.31,0-8,0-2.91,0-4.26-1.34-4.26-4.22V229.06c0-3.28-1.24-4.53-4.47-4.54H245.7c-3,0-4.33,1.31-4.33,4.41q0,12.48,0,24.94c0,3.05-1.3,4.34-4.39,4.34-2.79,0-5.57,0-8.36,0s-4-1.41-4-4c0-2.87,0-5.74,0-8.61s-1.41-4.22-4.17-4.23h-8.61c-2.63,0-4.08,1.44-4.1,4,0,3,0,5.92,0,8.87a3.67,3.67,0,0,0,4,4c3,0,6,0,9,0a3.56,3.56,0,0,1,3.87,3.84q0,21.39,0,42.79a3.56,3.56,0,0,1-3.86,3.85c-2.87,0-5.74,0-8.61,0-3.07,0-4.41,1.33-4.41,4.37V338c0,3.16-1.25,4.39-4.45,4.4-2.7,0-5.4,0-8.1,0-2.94,0-4.25,1.31-4.26,4.22v8.22c0,3.09-1.31,4.41-4.35,4.42-2.87,0-5.74,0-8.61,0a3.59,3.59,0,0,1-3.91-3.93q0-12.72,0-25.45c0-3-1.29-4.29-4.3-4.3H144.63c-3,0-4.32-1.32-4.32-4.3s0-5.74,0-8.61a3.61,3.61,0,0,1,3.9-3.95c2.91,0,5.83,0,8.74,0s4.21-1.32,4.22-4.26c0-2.79,0-5.57,0-8.36s1.32-4.18,4.14-4.19h8.61c2.73,0,4.07,1.37,4.07,4.13s0,5.74,0,8.61c0,2.66,1.38,4.05,4,4.06,3,0,5.91,0,8.87,0,2.56,0,4-1.4,4-4,0-2.95,0-5.91,0-8.86,0-2.58,1.38-3.94,4-4,2.91,0,5.83,0,8.74,0,2.66,0,4.07-1.41,4.08-4,0-3,0-6,0-9a3.57,3.57,0,0,0-3.85-3.86c-3,0-6,0-9,0-2.59,0-4-1.38-4-4q0-12.6,0-25.19c0-3.23-1.3-4.53-4.52-4.53-2.78,0-5.57,0-8.35,0a3.64,3.64,0,0,0-4,4c0,3,0,5.91,0,8.86,0,2.57-1.42,4-4,4q-12.85,0-25.71,0a3.64,3.64,0,0,1-4-4c0-3,0-6,0-9a3.62,3.62,0,0,1,3.94-3.92c2.95,0,5.91,0,8.87,0,2.6,0,4-1.35,4-3.91,0-3,0-6,0-9,0-2.51-1.43-3.87-3.94-3.88-2.95,0-5.91,0-8.87,0-2.62,0-4-1.45-4-4.08,0-2.95,0-5.91,0-8.86a3.62,3.62,0,0,1,3.92-3.94h25.83a3.59,3.59,0,0,1,3.93,3.91c0,3,0,5.91,0,8.87,0,2.63,1.42,4.08,4,4.1,3,0,5.91,0,8.87,0a3.63,3.63,0,0,0,4-3.91q0-13,0-26c0-2.51-1.48-3.82-4.14-3.82H145c-3.41,0-4.64-1.23-4.64-4.64,0-2.78,0-5.57,0-8.35a3.58,3.58,0,0,1,3.84-3.88q38.29,0,76.6,0a3.57,3.57,0,0,1,3.8,3.79c0,3,0,6.08,0,9.12a3.64,3.64,0,0,1-3.93,3.95c-3,0-6,0-9,0-2.55,0-3.95,1.43-4,4q0,12.78,0,25.57c0,2.69,1.44,4.1,4.16,4.11,2.87,0,5.74,0,8.61,0,2.68,0,4.1-1.45,4.11-4.16s0-5.65,0-8.48,1.32-4.24,4.23-4.24h41.9c3.11,0,4.35-1.24,4.35-4.34,0-2.79,0-5.57,0-8.36s1.39-4.09,4.12-4.1,5.66,0,8.48,0,4.27-1.39,4.28-4.25,0-5.74,0-8.61c0-2.58,1.39-4,3.94-4q4.49,0,9,0a3.54,3.54,0,0,1,3.86,3.83c0,2.91,0,5.82,0,8.73s1.38,4.29,4.23,4.31h8.48c2.78,0,4.16-1.42,4.16-4.22s0-5.83,0-8.74a3.58,3.58,0,0,1,3.92-3.91c3,0,5.91,0,8.87,0,2.64,0,4,1.4,4,4.07q0,12.53,0,25.06c0,3.35,1.22,4.55,4.57,4.55h8.23c2.63,0,4.05,1.42,4.06,4.05q0,4.37,0,8.74c0,2.69-1.42,4.08-4.16,4.09h-8.48c-2.9,0-4.21,1.31-4.22,4.25,0,2.78,0,5.57,0,8.35s-1.32,4.19-4.14,4.19H312.86q-4.08,0-4.11-4.11t0-8.49c0-2.84,1.35-4.19,4.16-4.19s5.74,0,8.61,0c2.69,0,4.1-1.44,4.1-4.15,0-2.91,0-5.82,0-8.74a3.63,3.63,0,0,0-4-4c-3,0-5.91,0-8.87,0a3.64,3.64,0,0,0-4,4c0,2.91,0,5.83,0,8.74s-1.38,4.15-4.21,4.15H279.35c-3,0-4.29,1.33-4.29,4.32,0,2.79,0,5.57,0,8.36s1.39,4.12,4.1,4.12h25.19c3.09,0,4.39,1.29,4.4,4.35,0,2.87,0,5.74,0,8.61a3.58,3.58,0,0,1-3.9,3.93c-3,0-6,0-9,0a3.53,3.53,0,0,0-3.89,3.9q0,21.33,0,42.67c0,2.5,1.39,3.91,3.89,3.91h25.83c2.56,0,3.95-1.42,3.95-4q0-12.79,0-25.58c0-2.69-1.42-4.09-4.14-4.11h-8.74c-2.56,0-4-1.4-4-4,0-3,0-5.91,0-8.87,0-2.56,1.43-3.94,4-3.94h25.32c3.05,0,4.35-1.32,4.36-4.39,0-2.79,0-5.57,0-8.36s1.42-4.13,4.12-4.14h59.12c2.77,0,4.16,1.42,4.18,4.22s0,5.66,0,8.48-1.42,4.18-4.21,4.19h-8.61c-2.66,0-4.05,1.38-4.05,4q0,12.64,0,25.31c0,3-1.33,4.33-4.29,4.34s-5.66,0-8.48,0c-2.64,0-4.05-1.41-4.06-4,0-2.91,0-5.83,0-8.74,0-2.71-1.43-4.08-4.16-4.1h-8.48c-2.82,0-4.2,1.39-4.21,4.17s0,5.83,0,8.74c0,2.54-1.45,4-4,4-2.91,0-5.82,0-8.74,0-2.73,0-4.09,1.36-4.1,4.12s0,5.74,0,8.61,1.37,4.07,4.14,4.07h58.47c3.6,0,4.8,1.19,4.8,4.76,0,2.61,0,5.22,0,7.84,0,2.9-1.37,4.27-4.24,4.27H397c-2.58,0-4,1.4-4,3.94q0,12.92,0,25.83a3.6,3.6,0,0,0,3.94,3.9c3,0,5.91,0,8.87,0,2.64,0,4.05,1.4,4.05,4.06q0,12.78,0,25.57c0,2.66-1.42,4-4.06,4.05h-8.74c-2.64,0-4.06,1.41-4.06,4q0,12.78,0,25.57c0,2.66,1.39,4.06,4,4.07h8.74c2.64,0,4.07,1.4,4.09,4,0,2.82,0,5.65,0,8.48,0,3-1.35,4.37-4.41,4.37H313.05c-2.9,0-4.29-1.37-4.3-4.23s0-5.65,0-8.48,1.41-4.17,4.22-4.17H371.7c3.19,0,4.46-1.25,4.46-4.41q0-12.41,0-24.81c0-3.18-1.27-4.46-4.41-4.46h-8.1c-3,0-4.33,1.31-4.34,4.27s0,5.74,0,8.61c0,2.49-1.41,4-3.88,4-3,0-6.09,0-9.13,0a3.58,3.58,0,0,1-3.84-3.88c0-3,0-6,0-9,0-2.57-1.42-4-4-4h-8.87c-2.55,0-3.95,1.43-4,4,0,3,0,5.91,0,8.86a3.64,3.64,0,0,1-4,4q-12.86,0-25.71,0c-2.58,0-4-1.43-4-4,0-3,0-5.91,0-8.87,0-2.58,1.39-4,3.95-4,3,0,5.91,0,8.86,0,2.57,0,4-1.38,4-3.93q0-29.76,0-59.51c0-2.57-1.4-3.92-4-3.92H296c-2.67,0-4,1.37-4,4q0,21,0,41.9c0,3.35-1.23,4.6-4.54,4.61h-8.1c-2.88,0-4.24-1.38-4.24-4.27Q275,344.42,275.05,317Zm50.58,33.78q0,10.53,0,21.07c0,3,1.31,4.3,4.31,4.3h41.89c3,0,4.33-1.31,4.33-4.3q0-21,0-42c0-2.9-1.34-4.21-4.26-4.22h-42c-2.92,0-4.25,1.32-4.25,4.22Q325.62,340.27,325.63,350.75Z"/><path d="M283.54,460.32H262.46c-2.92,0-4.2-1.29-4.2-4.24s0-5.82,0-8.74a3.5,3.5,0,0,1,3.85-3.81c2.91,0,5.82,0,8.74,0s4.2-1.35,4.2-4.15,0-5.91,0-8.87a3.55,3.55,0,0,0-3.83-3.85c-3,0-6.09,0-9.13,0a3.55,3.55,0,0,0-3.83,3.86c0,2.95,0,5.91,0,8.87,0,2.7-1.42,4.12-4.12,4.14s-5.65,0-8.48,0-4.28-1.4-4.28-4.37q0-20.88,0-41.77c0-3.17-1.25-4.42-4.42-4.42H212c-3,0-4.33-1.33-4.33-4.29s0-5.74,0-8.61c0-2.5-1.38-3.9-3.89-3.92-2.91,0-5.83,0-8.74,0s-4.16-1.34-4.17-4.18v-8.35c0-3.07,1.28-4.32,4.4-4.32H220.2c3,0,4.36-1.33,4.37-4.4,0-2.87,0-5.74,0-8.61a3.51,3.51,0,0,1,3.73-3.84q13.09,0,26.21,0a3.54,3.54,0,0,1,3.73,3.73q.08,4.68,0,9.38a3.57,3.57,0,0,1-3.86,3.72c-3,0-6,0-9,0-2.55,0-4,1.43-4,4,0,2.91,0,5.83,0,8.74,0,2.71,1.4,4.13,4.11,4.13q12.53,0,25.06,0c3.31,0,4.51,1.19,4.51,4.46,0,2.83,0,5.65,0,8.48,0,2.49-1.41,3.88-3.92,3.89-2.91,0-5.82,0-8.74,0-2.76,0-4.12,1.35-4.13,4.07,0,2.91,0,5.83,0,8.74,0,2.65,1.37,4,4,4.05h25.19c3.18,0,4.45,1.26,4.45,4.41v24.93c0,3.05,1.32,4.35,4.4,4.35,2.87,0,5.75,0,8.62,0a3.48,3.48,0,0,1,3.78,3.74q0,4.69,0,9.38a3.47,3.47,0,0,1-3.74,3.67Z"/><path d="M39.26,249.77V178.44c0-3.26,1.22-4.49,4.49-4.49h75.19c3.26,0,4.51,1.24,4.52,4.48,0,2.79,0,5.57,0,8.35s-1.41,4-4.07,4c-2.95,0-5.91,0-8.86,0a3.56,3.56,0,0,0-3.89,3.92c0,2.92,0,5.83,0,8.74,0,2.76-1.36,4.14-4.07,4.14H93.81c-2.64,0-4-1.39-4-4,0-2.91,0-5.82,0-8.73q0-4-4-4-12.78,0-25.57,0c-2.66,0-4.07,1.39-4.07,4q0,12.78,0,25.57c0,2.63,1.45,4.07,4,4.09,3,0,5.92,0,8.87,0,2.55,0,4,1.41,4,4q0,12.78,0,25.57c0,2.69-1.43,4.1-4.15,4.11s-5.66,0-8.48,0-4.25,1.34-4.25,4.24q0,26.79,0,53.59c0,1.89,0,3.77,0,5.66,0,2.47-1.43,3.87-3.94,3.88H43.5c-2.91,0-4.24-1.33-4.24-4.22q0-35.22,0-70.43Z"/><path d="M249.89,56h20.95c2.93,0,4.21-1.29,4.21-4.23s0-5.65,0-8.48,1.4-4.08,4.14-4.09c2.95,0,5.91,0,8.86,0A3.56,3.56,0,0,1,291.94,43q0,13,0,26c0,2.48-1.52,3.89-4.1,3.89h-42c-3.16,0-4.45,1.28-4.45,4.42q0,12.54,0,25.06c0,2.84-1.33,4.19-4.14,4.2s-5.83,0-8.74,0a3.57,3.57,0,0,1-3.91-3.91c0-3,0-5.91,0-8.87,0-2.63-1.42-4.06-4-4.08-3,0-5.91,0-8.87,0-2.54,0-4,1.47-4,4,0,3,0,5.91,0,8.87,0,2.56-1.41,4-4,4q-12.85,0-25.7,0a3.63,3.63,0,0,1-4-4c0-3,0-5.91,0-8.87a3.63,3.63,0,0,1,4-4c3,0,5.91,0,8.87,0,2.58,0,4-1.39,4-3.95q0-4.44,0-8.87c0-2.58-1.43-4-4-4-2.95,0-5.91,0-8.86,0-2.56,0-4-1.43-4-4,0-3,0-5.91,0-8.87,0-2.61,1.43-4,4.08-4,2.95,0,5.91,0,8.86,0a3.58,3.58,0,0,0,3.92-3.91c0-3,0-6,0-9a3.52,3.52,0,0,1,3.9-3.88q4.5,0,9,0a3.53,3.53,0,0,1,3.89,3.9q0,12.66,0,25.32c0,3.14,1.31,4.45,4.44,4.46,2.83,0,5.65,0,8.48,0a3.64,3.64,0,0,0,4-3.91c0-3,0-6,0-9,0-2.55,1.41-4,4-4C235.67,56,242.78,56,249.89,56Z"/><path d="M460.37,317.2V355c0,3-1.3,4.3-4.3,4.3H414.18c-3,0-4.3-1.29-4.31-4.28,0-2.83,0-5.65,0-8.48s1.36-4.09,4.12-4.1q12.52,0,25.05,0c3.25,0,4.52-1.27,4.53-4.49q0-12.41,0-24.8c0-3.06-1.33-4.4-4.36-4.41-2.87,0-5.74,0-8.61,0a3.57,3.57,0,0,1-3.9-3.92c0-3,0-6,0-9,0-2.48-1.43-3.88-3.93-3.89-2.91,0-5.82,0-8.73,0-2.75,0-4.14-1.37-4.15-4.08,0-2.95,0-5.91,0-8.86,0-2.49,1.42-3.94,3.9-3.94q21.33,0,42.65,0c2.55,0,3.94,1.45,3.94,4Q460.38,298.12,460.37,317.2Z"/><path d="M72.94,291.92V262.49c0-3,1.28-4.27,4.3-4.28,2.66,0,5.32,0,8,0,3.31,0,4.54-1.24,4.54-4.59,0-2.7,0-5.4,0-8.1s1.4-4.19,4.19-4.2,5.82,0,8.74,0a3.57,3.57,0,0,0,3.93-3.89c0-3,0-6,0-9a3.54,3.54,0,0,1,3.9-3.9h25.83c2.56,0,3.94,1.4,3.95,4,0,2.95,0,5.91,0,8.86,0,2.51-1.42,3.92-3.9,3.93-2.95,0-5.91,0-8.86,0-2.65,0-4.06,1.41-4.09,4,0,2.91,0,5.83,0,8.74,0,2.72-1.41,4.1-4.12,4.11-3,0-5.92,0-8.87,0a3.53,3.53,0,0,0-3.83,3.85c0,2.87,0,5.74,0,8.61,0,3-1.28,4.33-4.26,4.33-2.83,0-5.66,0-8.49,0s-4.1,1.42-4.11,4.14,0,5.74,0,8.61c0,2.71,1.43,4.12,4.13,4.13,3,0,5.91,0,8.87,0a3.57,3.57,0,0,1,3.86,3.84q0,4.56,0,9.12a3.55,3.55,0,0,1-3.85,3.84c-3,0-5.92,0-8.87,0-2.73,0-4.13,1.4-4.14,4.12,0,2.91,0,5.83,0,8.74,0,2.64-1.41,4-4.08,4H77.06c-2.73,0-4.12-1.38-4.12-4.1Z"/><path d="M291.94,106.41q0-6.28,0-12.59c0-2.67,1.36-4.1,4-4.1q12.84,0,25.7,0c2.56,0,4,1.45,4,4q0,12.84,0,25.7c0,2.56-1.4,4-4,4-2.79,0-5.57,0-8.36,0-3.31,0-4.54,1.25-4.54,4.61,0,2.78,0,5.57,0,8.35,0,2.49-1.42,3.87-3.93,3.88-2.91,0-5.82,0-8.74,0-2.75,0-4.12,1.36-4.12,4.08,0,2.91,0,5.82,0,8.74,0,2.56-1.41,4-4,4-3,0-6,0-9,0a3.63,3.63,0,0,1-3.93-3.94c0-3,0-6,0-9a3.56,3.56,0,0,0-3.9-3.91c-2.95,0-5.91,0-8.87,0-2.65,0-4-1.38-4-4q0-4.38,0-8.74c0-2.67,1.35-4,4-4.06h25.06c3.4,0,4.6-1.22,4.6-4.66Z"/><path d="M174,418.2q0-18.82,0-37.65c0-3.16,1.27-4.42,4.44-4.43h8.09c3,0,4.33,1.33,4.34,4.29,0,2.74,0,5.48,0,8.22,0,3,1.28,4.32,4.27,4.33s5.74,0,8.61,0a3.57,3.57,0,0,1,3.92,3.9c0,3,0,6,0,9,0,2.55-1.41,3.95-4,4-2.86,0-5.73,0-8.6,0s-4.19,1.29-4.2,4.12,0,5.83,0,8.74c0,2.57,1.39,3.94,4,3.95h8.74c2.66,0,4.07,1.39,4.08,4,0,3,0,6,0,9a3.56,3.56,0,0,1-3.84,3.86c-3,0-6,0-9,0-2.59,0-3.94,1.36-4,4,0,2.91,0,5.83,0,8.74,0,2.72-1.4,4.09-4.14,4.09h-8.35c-3.09,0-4.38-1.28-4.38-4.34Q174,437.1,174,418.2Z"/><path d="M241.36,165.49q0-10.47,0-20.94c0-2.91,1.35-4.28,4.22-4.28s5.73,0,8.6,0c2.63,0,4.06,1.43,4.06,4q0,12.72,0,25.44c0,2.85,1.32,4.18,4.14,4.19s5.82,0,8.73,0a3.56,3.56,0,0,1,3.92,3.89q0,4.58,0,9.13a3.52,3.52,0,0,1-3.73,3.83q-13.1.06-26.21,0c-2.33,0-3.74-1.57-3.74-4Q241.36,176.16,241.36,165.49Z"/><path d="M359.31,190.82V178.11c0-2.79,1.39-4.15,4.21-4.16H372c2.79,0,4.15,1.37,4.16,4.2s0,5.74,0,8.61c0,2.65,1.4,4,4,4.06,3,0,5.91,0,8.87,0,2.5,0,3.91,1.41,3.91,3.89q0,12.92,0,25.83c0,2.53-1.44,3.95-4,4q-4.38,0-8.74,0c-2.65,0-4.06-1.4-4.08-4,0-2.91,0-5.82,0-8.73,0-2.73-1.41-4.11-4.12-4.12-3,0-5.91,0-8.87,0a3.54,3.54,0,0,1-3.85-3.83C359.3,199.47,359.31,195.15,359.31,190.82Z"/><path d="M435.11,460.32H414.05c-2.86,0-4.17-1.3-4.18-4.14s0-5.74,0-8.61c0-2.69,1.34-4,4-4h8.61c2.82,0,4.19-1.38,4.2-4.16s0-5.74,0-8.61c0-2.7,1.42-4.1,4.14-4.11h8.73a3.66,3.66,0,0,1,4,4c0,2.91,0,5.82,0,8.74s1.36,4.14,4.19,4.15h8.61c2.61,0,4,1.36,4,3.93,0,3,0,6,0,9,0,2.48-1.41,3.87-3.92,3.87Z"/><path d="M207.68,131.85V110.91c0-3,1.33-4.33,4.29-4.33s5.74,0,8.61,0a3.63,3.63,0,0,1,4,4q0,21.27,0,42.52a3.64,3.64,0,0,1-4,4c-3,0-5.91,0-8.86,0-2.63,0-4-1.44-4-4.08Q207.66,142.45,207.68,131.85Z"/><path d="M460.37,409.83q0,6.44,0,12.85c0,2.57-1.39,3.95-4,4q-4.5,0-9,0a3.52,3.52,0,0,1-3.83-3.84c0-3,0-5.9,0-8.86,0-2.72-1.39-4.09-4.12-4.1H431c-2.89,0-4.27-1.37-4.28-4.23s0-5.73,0-8.6c0-2.61,1.44-4,4.08-4h25.56c2.66,0,4,1.38,4,4Q460.38,403.41,460.37,409.83Z"/><path d="M174,140.13c0-4.19,0-8.39,0-12.58q0-4.1,4.1-4.13,4.36,0,8.73,0c2.64,0,4,1.42,4,4.08q0,12.78,0,25.55c0,2.64-1.42,4-4.05,4.07-3,0-5.91,0-8.86,0-2.56,0-4-1.46-4-4C174,148.78,174,144.46,174,140.13Z"/><path d="M443.59,258.21c-4.24,0-8.47,0-12.71,0q-4.19,0-4.2-4.19c0-2.91,0-5.82,0-8.73a3.62,3.62,0,0,1,3.89-4q13,0,25.94,0a3.56,3.56,0,0,1,3.84,3.86q0,4.56,0,9.12a3.59,3.59,0,0,1-3.93,3.9C452.15,258.23,447.87,258.21,443.59,258.21Z"/><path d="M241.36,308.77q0-6.36,0-12.71c0-2.8,1.38-4.15,4.19-4.16h8.74a3.59,3.59,0,0,1,3.95,3.88q0,13,0,26a3.6,3.6,0,0,1-3.87,3.85q-4.56,0-9.12,0a3.63,3.63,0,0,1-3.89-4C241.35,317.33,241.36,313.05,241.36,308.77Z"/><path d="M325.63,157.09v12.59c0,2.92-1.34,4.27-4.21,4.27s-5.82,0-8.73,0a3.6,3.6,0,0,1-3.93-3.91q0-12.91,0-25.81c0-2.55,1.46-3.95,4-4,3,0,5.91,0,8.86,0a3.61,3.61,0,0,1,4,4C325.64,148.53,325.63,152.81,325.63,157.09Z"/><path d="M435.12,174c1.54,0,3.08,0,4.62,0a3.56,3.56,0,0,1,3.8,3.64q.1,4.82,0,9.62a3.5,3.5,0,0,1-3.61,3.58q-4.8.1-9.62,0a3.55,3.55,0,0,1-3.62-3.71c0-3.16,0-6.33,0-9.5a3.58,3.58,0,0,1,3.68-3.65h4.75Z"/><path d="M140.31,283.5c0-1.54,0-3.08,0-4.62A3.58,3.58,0,0,1,144,275c3.12,0,6.25,0,9.37,0a3.56,3.56,0,0,1,3.74,3.72c.06,3.16.06,6.33,0,9.49a3.54,3.54,0,0,1-3.79,3.66q-4.62,0-9.24,0a3.6,3.6,0,0,1-3.81-3.9C140.3,286.49,140.31,285,140.31,283.5Z"/><path d="M393,182.31c0-1.54,0-3.08,0-4.62a3.55,3.55,0,0,1,3.71-3.73q4.68,0,9.36,0a3.54,3.54,0,0,1,3.77,3.68c.06,3.17.06,6.33,0,9.5a3.52,3.52,0,0,1-3.65,3.67c-3.17.06-6.33.06-9.5,0a3.56,3.56,0,0,1-3.7-3.75C393,185.48,393,183.89,393,182.31Z"/><path d="M131.89,275c-1.59,0-3.17,0-4.75,0a3.43,3.43,0,0,1-3.65-3.48c-.07-3.29-.08-6.59,0-9.88a3.4,3.4,0,0,1,3.58-3.42c3.21,0,6.41,0,9.62,0a3.45,3.45,0,0,1,3.59,3.55q.08,4.82,0,9.62a3.48,3.48,0,0,1-3.67,3.61C135.05,275,133.47,275,131.89,275Z"/><path d="M106.62,317.25c0-1.59,0-3.17,0-4.75a3.52,3.52,0,0,1,3.54-3.76q4.88-.12,9.75,0a3.47,3.47,0,0,1,3.52,3.64c0,3.17,0,6.33,0,9.5a3.51,3.51,0,0,1-3.72,3.7q-4.68.06-9.36,0a3.54,3.54,0,0,1-3.73-3.71C106.6,320.33,106.62,318.79,106.62,317.25Z"/><path d="M317.16,39.21c1.58,0,3.16,0,4.74,0a3.5,3.5,0,0,1,3.71,3.58q.08,4.8,0,9.62A3.47,3.47,0,0,1,322,56c-3.2,0-6.41,0-9.62,0a3.45,3.45,0,0,1-3.64-3.51q-.12-4.87,0-9.75a3.48,3.48,0,0,1,3.76-3.52C314.08,39.2,315.62,39.21,317.16,39.21Z"/><path d="M275.05,98.14c0,1.54,0,3.08,0,4.62a3.52,3.52,0,0,1-3.73,3.81q-4.68,0-9.36,0a3.51,3.51,0,0,1-3.7-3.72q0-4.68,0-9.37a3.51,3.51,0,0,1,3.67-3.75c3.16-.06,6.33-.06,9.49,0a3.5,3.5,0,0,1,3.63,3.79C275.07,95.06,275.05,96.6,275.05,98.14Z"/><path d="M72.94,216c0-1.54,0-3.08,0-4.62a3.52,3.52,0,0,1,3.6-3.69q4.82-.08,9.62,0a3.49,3.49,0,0,1,3.57,3.6q.06,4.8,0,9.62a3.48,3.48,0,0,1-3.53,3.63q-4.87.1-9.75,0a3.53,3.53,0,0,1-3.52-3.66V216Z"/><path d="M426.68,216c0,1.63,0,3.25,0,4.88a3.5,3.5,0,0,1-3.51,3.66q-4.87.1-9.75,0a3.48,3.48,0,0,1-3.53-3.63q-.06-4.81,0-9.62a3.49,3.49,0,0,1,3.57-3.6q4.8-.08,9.62,0a3.54,3.54,0,0,1,3.61,3.69V216Z"/><path d="M216,426.64c-1.54,0-3.08,0-4.61,0a3.54,3.54,0,0,1-3.69-3.62q-.08-4.8,0-9.62a3.47,3.47,0,0,1,3.6-3.55q4.81-.06,9.63,0a3.46,3.46,0,0,1,3.61,3.54c.07,3.25.08,6.5,0,9.75a3.49,3.49,0,0,1-3.67,3.5C219.24,426.66,217.62,426.64,216,426.64Z"/><path d="M249.83,258.22c1.58,0,3.16,0,4.74,0a3.49,3.49,0,0,1,3.66,3.5q.11,4.88,0,9.75a3.47,3.47,0,0,1-3.62,3.53q-4.81,0-9.63,0a3.48,3.48,0,0,1-3.6-3.56q-.07-4.81,0-9.62a3.52,3.52,0,0,1,3.7-3.6C246.66,258.2,248.24,258.22,249.83,258.22Z"/><path d="M249.77,123.41c-1.54,0-3.08,0-4.62,0a3.59,3.59,0,0,1-3.78-3.81q0-4.6,0-9.23a3.57,3.57,0,0,1,3.8-3.78q4.62,0,9.24,0a3.58,3.58,0,0,1,3.84,3.86q0,4.56,0,9.11a3.61,3.61,0,0,1-3.86,3.85h-4.62Z"/><path d="M409.87,418.14c0-1.58,0-3.17,0-4.75a3.44,3.44,0,0,1,3.58-3.55q4.8-.06,9.62,0a3.45,3.45,0,0,1,3.59,3.67c0,3.16,0,6.33,0,9.49a3.48,3.48,0,0,1-3.65,3.63c-3.16,0-6.33,0-9.49,0a3.5,3.5,0,0,1-3.66-3.62v-4.87Z"/><path d="M443.57,199.23c0-1.58,0-3.16,0-4.74a3.46,3.46,0,0,1,3.61-3.65c3.21,0,6.42,0,9.62,0a3.45,3.45,0,0,1,3.56,3.58q0,4.8,0,9.62a3.44,3.44,0,0,1-3.55,3.58q-4.87.06-9.75,0a3.45,3.45,0,0,1-3.49-3.51v-4.88Z"/><path d="M350.82,359.27c-1.5,0-3,0-4.49,0a3.54,3.54,0,0,1-3.86-3.7c-.05-3.17-.06-6.33,0-9.5a3.49,3.49,0,0,1,3.67-3.63c3.17-.06,6.33-.06,9.5,0a3.52,3.52,0,0,1,3.66,3.77c0,3.12,0,6.24,0,9.36a3.54,3.54,0,0,1-3.73,3.7C354,359.29,352.4,359.27,350.82,359.27Z"/><path d="M39.26,98.24V43.49c0-3,1.23-4.28,4.27-4.28H152.89c3,0,4.28,1.27,4.28,4.31V152.75c0,3.09-1.28,4.38-4.37,4.38H43.56c-3,0-4.3-1.27-4.3-4.27Zm58.85,42h39.32c2.27,0,2.88-.62,2.88-2.91V58.85c0-2.17-.66-2.84-2.85-2.84H59c-2.24,0-2.9.68-2.9,2.93q0,39.19,0,78.38c0,2.33.63,3,3,3Z"/><path d="M72.93,98.18q0-10.53,0-21.07c0-2.93,1.3-4.22,4.22-4.22h42.14c2.83,0,4.16,1.32,4.16,4.17q0,21.06,0,42.13c0,2.93-1.32,4.24-4.24,4.24H77.08c-2.83,0-4.15-1.34-4.15-4.18Q72.91,108.72,72.93,98.18Z"/><path d="M401.5,39.21h54.62c3,0,4.25,1.24,4.25,4.3V152.88c0,2.94-1.29,4.25-4.21,4.25H346.67c-2.9,0-4.22-1.34-4.22-4.27V43.49c0-3,1.28-4.28,4.3-4.28ZM359.31,98.06v39.45c0,2.1.66,2.75,2.77,2.76h78.64c2.18,0,2.84-.66,2.84-2.84q0-39.25,0-78.51c0-2.24-.67-2.91-2.92-2.91H362.26c-2.33,0-2.95.63-2.95,3Z"/><path d="M401.46,72.89h21.07c2.83,0,4.15,1.33,4.15,4.17v42.27c0,2.73-1.36,4.1-4.11,4.1H380.31c-2.82,0-4.17-1.35-4.17-4.19q0-21.06,0-42.13c0-2.92,1.33-4.22,4.25-4.22Z"/><path d="M98.17,460.32H43.43c-2.88,0-4.17-1.27-4.17-4.12V346.58c0-2.85,1.31-4.17,4.15-4.17H152.9c2.93,0,4.27,1.32,4.27,4.21v109.5c0,2.92-1.31,4.2-4.25,4.2Zm.1-101.05H58.83c-2.08,0-2.77.68-2.77,2.78q0,39.32,0,78.64c0,2.14.7,2.83,2.86,2.83h78.51c2.25,0,2.88-.65,2.88-2.93V362.21c0-2.36-.59-2.94-3-2.94Z"/><path d="M98.13,426.65H77.19c-3,0-4.26-1.28-4.26-4.19V380.32c0-2.91,1.31-4.22,4.25-4.22h42c2.93,0,4.26,1.3,4.27,4.21v42.13c0,2.92-1.33,4.2-4.27,4.21Z"/><path class="cls-1" d="M39.26,98.24V43.49c0-3,1.23-4.28,4.27-4.28H152.89c3,0,4.28,1.27,4.28,4.31V152.75c0,3.09-1.28,4.38-4.37,4.38H43.56c-3,0-4.3-1.27-4.3-4.27Zm58.85,42h39.32c2.27,0,2.88-.62,2.88-2.91V58.85c0-2.17-.66-2.84-2.85-2.84H59c-2.24,0-2.9.68-2.9,2.93q0,39.19,0,78.38c0,2.33.63,3,3,3Z"/><path class="cls-1" d="M72.93,98.18q0-10.53,0-21.07c0-2.93,1.3-4.22,4.22-4.22h42.14c2.83,0,4.16,1.32,4.16,4.17q0,21.06,0,42.13c0,2.93-1.32,4.24-4.24,4.24H77.08c-2.83,0-4.15-1.34-4.15-4.18Q72.91,108.72,72.93,98.18Z"/><path class="cls-1" d="M401.5,39.21h54.62c3,0,4.25,1.24,4.25,4.3V152.88c0,2.94-1.29,4.25-4.21,4.25H346.67c-2.9,0-4.22-1.34-4.22-4.27V43.49c0-3,1.28-4.28,4.3-4.28ZM359.31,98.06v39.45c0,2.1.66,2.75,2.77,2.76h78.64c2.18,0,2.84-.66,2.84-2.84q0-39.25,0-78.51c0-2.24-.67-2.91-2.92-2.91H362.26c-2.33,0-2.95.63-2.95,3Z"/><path class="cls-1" d="M401.46,72.89h21.07c2.83,0,4.15,1.33,4.15,4.17v42.27c0,2.73-1.36,4.1-4.11,4.1H380.31c-2.82,0-4.17-1.35-4.17-4.19q0-21.06,0-42.13c0-2.92,1.33-4.22,4.25-4.22Z"/><path class="cls-1" d="M98.17,460.32H43.43c-2.88,0-4.17-1.27-4.17-4.12V346.58c0-2.85,1.31-4.17,4.15-4.17H152.9c2.93,0,4.27,1.32,4.27,4.21v109.5c0,2.92-1.31,4.2-4.25,4.2Zm.1-101.05H58.83c-2.08,0-2.77.68-2.77,2.78q0,39.32,0,78.64c0,2.14.7,2.83,2.86,2.83h78.51c2.25,0,2.88-.65,2.88-2.93V362.21c0-2.36-.59-2.94-3-2.94Z"/><path class="cls-1" d="M98.13,426.65H77.19c-3,0-4.26-1.28-4.26-4.19V380.32c0-2.91,1.31-4.22,4.25-4.22h42c2.93,0,4.26,1.3,4.27,4.21v42.13c0,2.92-1.33,4.2-4.27,4.21Z"/></svg>